<svg width="88" height="71" viewBox="0 0 88 71" fill="none" xmlns="http://www.w3.org/2000/svg">
<path d="M0 57.7769C1.99865 57.8511 4.06708 57.6792 6.05838 57.7739C7.63247 57.8489 9.58778 58.1507 10.3274 59.7432C10.8651 60.9016 10.7344 62.422 9.6818 63.2373C9.39901 63.4562 9.04276 63.5348 8.80771 63.7934C10.8901 64.1658 11.8736 66.1887 11.1384 68.1425C10.5963 69.5829 9.26238 70.302 7.80508 70.5334C5.30108 70.9308 2.53999 70.562 0 70.6921L0 57.7769ZM3.30243 62.84H5.83435C5.8652 62.84 6.32575 62.7518 6.38892 62.7342C7.50466 62.422 7.6332 60.7958 6.51085 60.4013C6.43592 60.3749 6.02239 60.2713 5.98052 60.2713H3.3017V62.84H3.30243ZM6.34852 65.1882C5.3929 65.0876 4.27642 65.2632 3.30243 65.1882V68.0867C3.30243 68.0948 3.40453 68.1969 3.41261 68.1969H5.9078C6.10759 68.1969 6.72019 68.1051 6.931 68.0456C7.78598 67.8054 8.06804 66.9445 7.81757 66.1409C7.61778 65.5026 6.96919 65.2536 6.34852 65.1882Z" fill="black"/>
<path d="M25.0855 57.5052C30.2823 57.1901 33.1234 61.7493 31.7587 66.5252C30.0259 72.5858 20.826 72.4741 19.2651 66.2901C18.1721 61.9601 20.4051 57.7894 25.0855 57.5052ZM25.3066 60.1458C21.2263 60.4293 21.6861 69.7292 26.512 68.1764C29.3671 67.2575 29.4133 59.8608 25.3066 60.1458Z" fill="black"/>
<path d="M16.8802 57.7769H13.5043V70.692H16.8802V57.7769Z" fill="black"/>
<path d="M71.559 66.8761C71.5193 68.8578 73.0281 70.0801 74.9709 69.884C77.2986 69.6489 78.3497 67.0259 76.4377 65.4834C74.6264 64.0217 70.8583 63.7955 70.8193 60.8229C70.7628 56.542 78.3255 56.4282 78.2065 60.9345C78.1367 61.0293 77.2185 61.041 77.1466 60.9955C77.0973 60.9646 76.9482 60.117 76.8336 59.8768C75.7693 57.6504 71.5296 58.4577 72.032 61.0821C72.3112 62.5416 75.1912 63.3173 76.3782 64.0012C78.6185 65.2924 79.6131 68.0594 77.4308 69.9222C74.8725 72.1059 70.1384 70.6281 70.4572 66.8761H71.5583H71.559Z" fill="black"/>
<path d="M68.1097 61.0059H67.0086C66.9925 59.4171 65.782 58.5195 64.2527 58.5812C62.1571 58.6664 60.9752 60.9449 62.8314 62.2832C64.5208 63.5018 67.4692 63.8412 68.2919 66.0697C69.1226 68.3203 67.6793 70.4049 65.4103 70.8184C62.6287 71.326 60.3435 69.8026 60.3296 66.8755H61.4306C61.5416 68.9021 62.8644 70.0905 64.9079 69.8753C65.9921 69.7607 67.1746 68.9373 67.3025 67.7937C67.7314 63.9682 61.2154 64.7564 60.7901 61.2417C60.2201 56.5275 68.2999 56.2704 68.109 61.0052L68.1097 61.0059Z" fill="black"/>
<path d="M41.3944 61.006H40.2933C40.405 58.4432 36.5002 57.7256 35.4087 59.7551C34.0579 62.2679 38.2653 63.2162 39.7733 64.1307C43.2358 66.2299 41.9739 70.6489 38.0538 70.9118C35.4917 71.0837 33.5599 69.4993 33.6143 66.8771H34.7153C34.7227 67.2715 34.8027 67.7196 34.9328 68.0905C35.9317 70.9338 40.9118 70.3058 40.5857 67.0614C40.3007 64.2217 34.5075 64.4179 34.0734 61.3909C33.3763 56.5276 41.4833 56.2132 41.3937 61.0067L41.3944 61.006Z" fill="black"/>
<path d="M45.2842 57.7769V67.206C45.2842 70.8316 51.8163 70.7016 51.8163 67.3529V57.7769H52.8806C52.9416 57.7769 53.0106 57.9546 52.9945 58.0303C52.8858 60.842 53.1274 63.7449 52.9901 66.5456C52.8608 69.1863 51.7047 70.767 48.9201 70.9153C46.9479 71.0204 44.1831 69.8973 44.1831 67.5732V57.7769H45.2842Z" fill="black"/>
<path d="M87.9266 57.7769V58.8037H82.2751V63.5003H87.5593V64.5279H82.2751V69.6644H88V70.692H81.1741V57.7769H87.9266Z" fill="black"/>
<path d="M57.468 57.7769H56.2935V70.692H57.468V57.7769Z" fill="black"/>
<path d="M73.0283 11.9139L72.3305 7.95264L69.7596 10.6682C69.8808 11.8486 70.1159 13.0209 70.1519 14.2115C69.2381 15.0357 68.1481 15.6284 67.1689 16.3652L67.3768 19.9122L70.4589 18.0781V22.3332C74.537 20.2038 73.2207 19.9577 73.5057 15.9494L75.9634 14.1146C76.0119 13.4388 76.0281 12.669 75.9781 11.8251C75.9245 10.9032 75.8033 10.0769 75.6593 9.3644C75.2862 9.79483 74.8631 10.2473 74.3864 10.7078C73.9192 11.1596 73.4624 11.5592 73.0283 11.9125V11.9139Z" fill="#FFFFFE"/>
<path d="M43.7919 5.33667C59.9162 5.31831 70.1246 22.8551 62.0037 36.8846C54.3837 50.0495 35.5813 50.9655 26.7295 38.5733C16.8031 24.6768 26.7979 5.35577 43.7926 5.33594L43.7919 5.33667ZM53.138 30.8461C54.6438 25.5296 53.9526 20.1726 51.2143 15.4136C49.541 12.5064 47.0965 9.69829 44.2076 7.96701C41.6735 9.4985 39.3362 11.7711 37.6226 14.1965C33.1023 20.595 33.1574 27.6097 36.7323 34.443L38.0177 36.7164C33.8846 34.2719 31.3358 29.9184 30.2156 25.329C30.0834 24.7877 29.8057 21.7254 29.0088 23.5625C27.7917 26.3669 27.7226 30.6867 28.3668 33.6358C30.3412 42.6771 38.9418 46.9645 47.7208 45.2061C59.2228 42.9026 61.6276 29.3682 56.5528 20.2042C56.328 19.798 55.2821 18.0543 54.9743 17.8927C54.8847 17.8457 54.845 17.8398 54.7877 17.9287C54.6834 18.0888 55.0485 19.3654 55.0992 19.6768C55.6266 22.955 54.9148 26.9237 53.6132 29.9632C53.4891 30.2533 53.3738 30.6477 53.1395 30.8461H53.138Z" fill="black"/>
<path d="M73.6871 0.172752C73.7562 0.238859 74.1874 1.75419 74.2542 1.99144C74.9366 4.39849 75.3604 6.88192 75.6594 9.36536C74.8786 10.3092 73.9589 11.1223 73.0283 11.9134L72.3305 7.95213L69.7596 10.6677C69.8808 11.8481 70.1159 13.0204 70.1519 14.211C69.2381 15.0352 68.1481 15.6279 67.169 16.3647L67.3768 19.9117L70.4589 18.0776V22.3327C70.5801 22.4693 73.2567 20.5757 73.3794 20.2261C73.5814 18.8128 73.3823 17.3717 73.5057 15.9497L75.9635 14.1148C75.8386 17.0904 75.8129 20.3576 74.7911 23.1781C73.8869 25.6741 72.6559 26.8596 70.4538 28.2339C68.9965 29.1432 67.4451 29.9306 65.91 30.6982C66.9714 24.7838 65.7873 18.6013 62.3534 13.6704L62.3086 13.4295C66.4601 10.2652 69.8918 6.09524 72.6926 1.70644C72.9894 1.24149 73.2288 0.728054 73.5248 0.266037C73.5623 0.208009 73.5748 0.0625727 73.6886 0.172017L73.6871 0.172752Z" fill="black"/>
<path d="M23.7054 36.2759C25.22 40.5626 28.2999 44.2029 32.1525 46.5798C36.4539 49.2337 41.4751 50.3568 46.4956 50.6579H50.7147C49.2817 51.1596 47.7781 51.4982 46.2657 51.6767C41.8358 52.1982 36.9504 51.8023 32.5734 51.0024C28.5709 50.2708 21.6613 48.5271 19.3166 44.958C16.7994 41.1267 20.5161 37.8794 23.7062 36.2759H23.7054Z" fill="black"/>
<path d="M53.1379 30.8463C53.3723 30.648 53.4876 30.2536 53.6117 29.9634C54.9133 26.924 55.625 22.9553 55.0977 19.6771C55.0477 19.3657 54.6826 18.0891 54.7862 17.9289C54.8442 17.8401 54.8839 17.8459 54.9728 17.8929C55.2806 18.0545 56.3265 19.7983 56.5513 20.2045C61.6269 29.3685 59.222 42.9029 47.7193 45.2063C38.9403 46.9641 30.3397 42.6774 28.3653 33.6361C27.7211 30.6869 27.7909 26.3672 29.0073 23.5628C29.8042 21.7264 30.0819 24.788 30.2141 25.3293C31.3342 29.9194 33.8831 34.2722 38.0162 36.7167L36.7308 34.4433C33.1559 27.61 33.1008 20.5953 37.6211 14.1968C39.3347 11.7714 41.672 9.49877 44.2061 7.96729C47.0957 9.69857 49.5402 12.5074 51.2127 15.4139C53.9511 20.1722 54.6423 25.5298 53.1365 30.8463H53.1379Z" fill="#FFFFFE"/>
</svg>
