<svg width="34" height="31" viewBox="0 0 34 31" fill="none" xmlns="http://www.w3.org/2000/svg">
<path d="M0.0515137 2.15625C0.0515137 1.39453 0.637451 0.75 1.45776 0.75H4.09448C5.38354 0.75 6.55542 1.51172 7.08276 2.625H31.1648C32.6882 2.625 33.8015 4.08984 33.3914 5.61328L30.989 14.5195C30.5203 16.3945 28.821 17.625 26.946 17.625H10.0125L10.364 19.3242C10.4812 19.9688 11.0671 20.4375 11.7117 20.4375H28.6453C29.407 20.4375 30.0515 21.082 30.0515 21.8438C30.0515 22.6641 29.407 23.25 28.6453 23.25H11.7117C9.71948 23.25 7.96167 21.8438 7.61011 19.8516L4.56323 3.97266C4.50464 3.73828 4.32886 3.5625 4.09448 3.5625H1.45776C0.637451 3.5625 0.0515137 2.97656 0.0515137 2.15625ZM7.55151 27.9375C7.55151 26.9414 8.07886 26.0625 8.95776 25.5352C9.77808 25.0078 10.8914 25.0078 11.7703 25.5352C12.5906 26.0625 13.1765 26.9414 13.1765 27.9375C13.1765 28.9922 12.5906 29.8711 11.7703 30.3984C10.8914 30.9258 9.77808 30.9258 8.95776 30.3984C8.07886 29.8711 7.55151 28.9922 7.55151 27.9375ZM27.239 25.125C28.2351 25.125 29.114 25.7109 29.6414 26.5312C30.1687 27.4102 30.1687 28.5234 29.6414 29.3438C29.114 30.2227 28.2351 30.75 27.239 30.75C26.1843 30.75 25.3054 30.2227 24.7781 29.3438C24.2507 28.5234 24.2507 27.4102 24.7781 26.5312C25.3054 25.7109 26.1843 25.125 27.239 25.125Z" fill="black"/>
</svg>
