<svg width="92" height="54" viewBox="0 0 92 54" fill="none" xmlns="http://www.w3.org/2000/svg">
<path d="M8.81954 28.537L14.2589 46.1913C15.8633 40.2073 17.8739 34.2969 20.1079 28.537H25.8723L27.3345 52.6101H23.0324L22.0576 33.0292C20.0774 39.5049 17.9179 45.9605 15.5756 52.3024C15.3116 52.5031 12.9084 52.5265 12.4751 52.4496C12.2314 52.4061 12.113 52.3191 12.0317 52.085L8.41674 40.5719L6.38924 33.1898L5.41441 52.6068H1.18677L2.81148 28.5337H8.81954V28.537Z" fill="black"/>
<path d="M20.9981 23.483C20.9 23.8008 17.7995 24.5166 17.2681 24.6136C7.62471 26.3529 -0.745953 22.2989 0.0528647 11.6087C0.655363 3.50741 7.79056 -0.268957 15.403 0.286293C16.3 0.353191 19.1568 0.92182 19.9082 1.28976C20.1012 1.38341 20.1824 1.40348 20.1858 1.64766C20.1858 1.80487 19.4242 4.51422 19.343 4.67477C19.2854 4.7885 19.2617 4.90557 19.1128 4.93902C13.4568 2.96554 6.15908 3.82517 4.96762 10.6889C3.9014 16.8301 7.55701 21.7905 14.1033 21.3222C14.5771 21.2888 16.3609 21.0212 16.5369 20.6767C16.6757 20.4024 16.6926 16.0306 16.6249 15.452C16.6046 15.2914 16.5505 14.9001 16.3745 14.9001H12.4752C12.4582 14.9001 12.2314 14.676 12.2314 14.6592V11.6087C12.2314 11.592 12.4582 11.3679 12.4752 11.3679H20.7578C20.7747 11.3679 21.0015 11.592 21.0015 11.6087V23.483H20.9981Z" fill="black"/>
<path d="M86.8532 52.7704C86.051 52.6399 86.6907 51.0076 86.2811 50.3621C84.2164 52.8139 80.7639 53.9478 77.7277 52.4761C75.8593 51.5729 74.4275 48.7331 74.4275 46.7496V35.3536C74.4275 35.3369 74.6543 35.1128 74.6712 35.1128H78.7296C78.7465 35.1128 78.9733 35.3369 78.9733 35.3536V45.4652C78.9733 45.7161 79.2441 46.8667 79.3423 47.1845C80.202 49.954 83.4785 50.0577 85.1134 47.8434C85.2758 47.6226 85.7903 46.7797 85.7903 46.5891V35.3536C85.7903 35.3369 86.0171 35.1128 86.034 35.1128H90.2549C90.2718 35.1128 90.4986 35.3369 90.4986 35.3536V52.5262C90.4986 52.5429 90.2718 52.7671 90.2549 52.7671C89.2835 52.7671 87.7163 52.9075 86.843 52.7671L86.8532 52.7704Z" fill="black"/>
<path d="M55.591 24.6871H51.5326L51.3701 22.2788C48.317 26.3729 41.5981 26.2692 39.9633 20.9575C39.8516 20.5996 39.5165 19.4289 39.5165 19.1513V7.43419C39.5165 7.41747 39.7433 7.19336 39.7602 7.19336H43.8186C43.8355 7.19336 44.0623 7.41747 44.0623 7.43419V18.188C44.0623 18.295 44.35 19.2516 44.4245 19.4356C45.4873 22.1583 49.0549 22.0179 50.4021 19.6363C50.4867 19.4891 50.8827 18.5693 50.8827 18.5057V7.43419C50.8827 7.41747 51.1095 7.19336 51.1264 7.19336H55.1848L55.591 24.6871Z" fill="black"/>
<path d="M70.8564 52.6102H66.798C66.6254 52.6102 66.8082 50.8809 66.2328 51.0046C66.1549 51.0214 65.3256 51.8308 64.9973 52.0349C60.4989 54.8245 54.4874 51.9044 55.8007 46.3185C56.674 42.609 60.7527 41.5487 64.1172 41.2175C65.6066 41.0704 66.6288 41.7929 65.83 39.6822C65.1699 37.9329 62.8479 37.8593 61.2368 38.0499C59.9878 38.2005 58.9012 38.8293 57.703 39.127C57.6692 38.3811 56.6639 36.7655 57.2088 36.1567C57.4525 35.8858 59.1923 35.3138 59.6493 35.1968C63.1356 34.297 68.0843 34.4475 69.8579 38.1035C71.0426 40.5419 70.5924 45.1913 70.6872 48.0344C70.738 49.5597 70.6703 51.0849 70.8497 52.6068L70.8564 52.6102ZM64.8145 44.1543C63.1424 44.2547 60.5124 44.8534 60.1773 46.7901C59.5071 50.6735 64.9194 50.7337 66.0331 47.6062C66.2565 46.9774 66.4765 44.9437 66.2835 44.3684C66.1312 43.9102 65.1801 44.1309 64.8111 44.1543H64.8145Z" fill="black"/>
<path d="M33.4238 24.6872C33.0548 24.5701 33.1192 23.0783 32.9364 23.0816C30.8073 24.918 27.893 25.781 25.1784 24.6537C23.601 23.9981 22.3419 22.2454 22.1591 20.5763C21.6683 16.0875 25.2596 14.0471 29.2266 13.4752C29.9713 13.3681 31.8194 13.4183 32.2662 13.2711C33.0413 13.0203 32.1883 11.3144 31.7855 10.9029C30.1778 9.25392 26.2006 10.3009 24.3457 11.204C24.0783 11.1304 23.3201 8.62174 23.5097 8.31736C23.7872 7.87918 27.1213 6.99279 27.7847 6.9192C39.1543 5.65149 36.812 14.3248 37.0726 21.8875C37.0963 22.5933 37.3908 23.6469 37.3739 24.3259C37.3705 24.4765 37.2588 24.6872 37.1606 24.6872C36.4295 24.6872 33.8841 24.8344 33.4238 24.6872ZM32.6927 16.1812C30.5027 16.1243 26.5188 16.5491 26.5831 19.4458C26.6542 22.6836 30.9867 22.5331 32.273 20.1783C32.344 20.0445 32.6961 19.2049 32.6961 19.1514V16.1812H32.6927Z" fill="black"/>
<path d="M71.0191 2.38022V6.95267C71.0191 6.9694 71.2459 7.1935 71.2628 7.1935H74.9996C75.4498 7.1935 75.1655 10.0969 75.2433 10.5651H71.2662C71.2493 10.5651 71.0225 10.7892 71.0225 10.806V18.8303C71.0225 18.9842 71.4253 20.389 71.5302 20.573C71.6419 20.767 72.2376 21.3156 72.4001 21.3156H75.0809V24.6069C75.0809 24.8511 72.6167 25.1789 72.2376 25.1823C68.8223 25.2057 66.8964 23.4897 66.629 20.1181C66.392 17.1244 66.8355 13.8498 66.6121 10.826C66.4124 10.2206 64.4187 10.8495 64.1073 10.4113C63.9313 7.82568 63.4743 6.79881 66.6357 7.19016V3.41714C67.9558 2.8853 69.5704 2.47723 71.0191 2.37354V2.38022Z" fill="black"/>
<path d="M58.1092 0.132324H62.4925C62.5094 0.132324 62.7362 0.356431 62.7362 0.373155V24.6068C62.7362 24.6235 62.5094 24.8476 62.4925 24.8476H58.1092C58.0923 24.8476 57.8655 24.6235 57.8655 24.6068V0.373155C57.8655 0.329672 58.055 0.212601 58.1092 0.132324Z" fill="black"/>
<path d="M44.3838 52.6101C44.2518 52.8141 40.2374 52.871 39.838 52.687C39.7601 52.6502 39.5096 52.396 39.5096 52.3693V28.6173C39.5096 28.6006 39.7364 28.3765 39.7533 28.3765H44.1367C44.1536 28.3765 44.3804 28.6006 44.3804 28.6173V52.6101H44.3838Z" fill="black"/>
<path d="M52.8289 28.3765V52.6101H48.1206V28.6173C48.1206 28.6006 48.3474 28.3765 48.3643 28.3765H52.8289Z" fill="black"/>
<path d="M35.7763 52.6104H31.2305V35.1167H35.5326C35.5495 35.1167 35.7763 35.3408 35.7763 35.3575V52.6104Z" fill="black"/>
<path d="M80.9262 22.603C80.2019 23.4592 79.5452 23.8606 79.2169 25.0046C78.3572 28.015 78.875 32.8349 82.5476 33.6745C82.5983 33.7414 82.3952 33.9421 82.2768 33.9722C82.0601 34.0224 80.0699 33.4838 79.7009 33.3567C73.6455 31.2929 74.4511 23.1649 80.9228 22.5996L80.9262 22.603Z" fill="black"/>
<path d="M85.3098 33.9924L86.9988 32.534C88.1801 31.1693 88.3087 26.9314 87.5133 25.473C87.4151 25.2924 86.3117 24.3692 87.0022 24.5331C89.771 25.182 91.8323 27.2324 91.108 30.1759C90.4446 32.8819 87.8078 33.6813 85.3064 33.989L85.3098 33.9924Z" fill="black"/>
<path d="M82.2229 12.4917L80.6252 14.0437C79.6707 15.4486 79.3728 19.3955 80.2055 20.8271C80.2698 20.9375 81.6204 22.1283 80.8554 21.9544C79.2814 21.5965 76.9019 20.1816 76.5804 18.4757C75.8695 14.716 78.8346 12.786 82.2262 12.495L82.2229 12.4917Z" fill="black"/>
<path d="M81.8673 25.6133C81.7285 25.6936 81.5627 25.6367 81.4138 25.6501C81.3731 24.9009 81.4645 24.1115 81.8978 23.4826C83.1332 21.6965 88.136 20.7332 90.238 19.6895C91.0165 19.3049 91.4768 19.0507 91.6427 18.1074C92.2384 18.4185 91.9507 19.3684 91.7645 19.917C90.7694 22.8672 84.6835 23.0746 82.3784 24.9243C82.1415 25.1149 81.9012 25.5933 81.8639 25.6133H81.8673Z" fill="black"/>
<path d="M32.8111 27.935C36.856 27.1991 37.164 33.2199 32.933 32.7148C30.2624 32.3971 30.2387 28.4033 32.8111 27.935Z" fill="black"/>
<path d="M84.9848 12.4917C86.4775 12.7727 88.593 14.0504 88.3899 15.7663C88.224 17.1846 86.1694 17.6729 85.3334 16.5591C84.3552 15.2613 85.7734 14.4752 85.638 13.542C85.5703 13.067 84.9577 12.9801 84.9848 12.4917Z" fill="black"/>
</svg>
