<svg width="1250" height="806" viewBox="0 0 1250 806" fill="none" xmlns="http://www.w3.org/2000/svg">
<path d="M1250 785.205C1227.9 798.915 1204.56 808.359 1177 805.483C1146.04 802.255 1123.23 788.461 1109.62 762.208C1101.51 746.578 1098.89 729.871 1097.92 712.672C1096.89 694.5 1100.51 677.802 1110.58 661.995C1119.56 647.895 1126.79 632.83 1135.71 618.693C1149.23 597.246 1155.61 573.591 1162.12 549.9C1166.33 534.566 1169.53 519.222 1168.64 503.146C1167.4 480.725 1154.75 465.744 1134.99 454.733C1129.51 451.681 1123.84 451.338 1117.7 453.026C1107.03 455.957 1098.34 461.523 1092.23 469.993C1087.05 477.163 1081.58 484.473 1078.3 492.46C1068.22 516.996 1048.27 532.256 1024.11 543.258C1015.64 547.117 1005.71 549.102 996.238 549.964C973.999 551.987 951.44 552.543 929.49 548.629C888.982 541.393 875.092 504.204 891.422 476.059C897.051 466.347 904.461 457.98 914.131 451.681C922.83 446.004 931.98 440.883 941.2 435.948C979.199 415.624 1001.31 385.921 1003.21 344.641C1003.84 331.051 1002.81 317.433 998.828 304.121C991.098 278.203 971.189 264.038 945.15 256.079C935.69 253.184 926.02 254.502 916.961 258.676C903.531 264.854 894.071 274.585 888.132 287.173C885.602 292.526 884.282 298.361 882.082 303.861C878.372 313.11 875.212 322.665 870.372 331.385C857.893 353.861 830.013 362.488 805.474 351.616C796.805 347.776 788.525 342.934 780.725 337.702C765.136 327.247 761.686 311.728 767.175 298.444C772.435 285.717 771.885 272.247 769.385 259.001C768.605 254.845 766.815 250.569 764.356 247.025C753.266 231.042 730.767 231.153 719.397 247.025C718.477 248.314 717.507 249.594 716.807 250.995C712.597 259.418 703.537 263.194 691.688 255.485C688.978 253.723 686.658 251.44 684.148 249.409C680.888 246.765 677.688 244.038 674.318 241.515C665.169 234.678 648.809 236.942 645.579 249.956C641.909 264.724 618.99 267.786 609.37 256.774C607.351 254.455 606.201 251.422 604.961 248.593C600.461 238.305 589.021 234.428 578.791 240.355C574.042 243.11 570.172 247.136 565.722 250.374C561.822 253.212 557.982 256.376 553.562 258.305C546.383 261.44 540.823 259.65 536.133 253.723C534.953 252.229 533.933 250.615 532.923 249.01C526.803 239.261 517.613 234.316 505.564 235.365C494.284 236.348 484.704 245.346 482.005 256.7C478.875 269.91 478.315 283.305 483.065 296.181C491.804 319.873 479.755 332.804 464.165 341.774C459.635 344.381 454.945 346.756 450.436 349.39C430.616 361.004 393.487 358.759 379.858 330.151C375.428 320.856 371.498 311.292 368.348 301.561C364.148 288.593 358.618 276.57 347.599 267.229C331.479 253.565 313.8 251.468 294.111 260.105C266.591 272.173 251.832 292.099 248.892 320.114C247.132 336.876 246.002 353.694 251.692 369.854C261.552 397.859 279.241 420.364 307.62 434.881C316.94 439.649 326.51 444.334 334.779 450.438C342.749 456.328 350.069 463.397 356.089 471.032C368.368 486.579 369.058 503.953 361.088 521.319C353.999 536.783 339.609 544.751 322.87 548.443C313.6 550.493 303.7 550.697 294.091 550.632C278.481 550.521 262.532 551.18 247.342 548.517C213.563 542.599 188.814 524.76 174.124 495.326C169.935 486.941 164.955 478.824 159.575 471.041C153.465 462.182 144.695 456.208 133.656 453.119C127.546 451.412 121.816 451.486 116.336 454.566C98.0969 464.798 84.9973 478.184 82.8174 499.102C81.6374 510.354 81.6274 521.477 84.5373 532.33C90.0071 552.729 95.4169 573.192 102.397 593.165C106.157 603.925 113.026 613.758 118.676 623.925C127.996 640.706 137.446 657.413 146.865 674.148C151.625 682.608 153.045 691.736 153.205 701.114C153.525 720.455 151.775 739.518 143.595 757.589C130.146 787.301 105.887 802.765 71.4477 805.668C52.2368 807.29 6.17582 801.825 0 778.5V0H1250V785.205Z" fill="white"/>
</svg>
