<svg width="217" height="78" viewBox="0 0 217 78" fill="none" xmlns="http://www.w3.org/2000/svg">
<path d="M59.5756 16.1954C59.0144 17.0261 58.6688 18.1772 58.6688 19.4455V71.9259C58.6688 74.843 60.2605 77.2085 62.2201 77.2085H73.6192C74.2946 77.2085 74.9573 76.9199 75.5281 76.3777C81.2483 70.9524 86.9621 65.524 92.6823 60.0987C93.4623 59.3567 94.4865 60.197 94.4801 61.5731C94.4801 61.5858 94.4801 61.6017 94.4801 61.6143C94.4801 62.0297 94.3787 62.4197 94.2043 62.7273C94.0679 62.9651 93.9221 63.0888 93.8903 63.1141C93.5955 63.3678 87.5328 69.1672 79.1301 77.2053H106.485C108.448 77.2053 110.036 74.8399 110.036 71.9227V19.734C110.036 18.2057 109.589 16.7503 108.815 15.7451C105.293 11.1918 101.773 6.63851 98.2502 2.0852C97.6034 1.25127 96.7758 0.791504 95.9197 0.791504H60.641C60.0196 0.791504 59.4298 1.2481 59.0937 2.02813C58.3898 3.6611 58.6244 5.36384 59.3125 6.38484C59.712 6.97779 60.2605 7.34561 60.8693 7.34561H65.7714C64.557 7.34561 63.5709 8.81053 63.5709 10.6211C63.5709 11.5279 63.8182 12.346 64.2177 12.9389C64.6173 13.5319 65.1658 13.8965 65.7746 13.8965H70.4643C70.4421 13.8965 70.4167 13.8965 70.3945 13.8997C69.2118 13.9536 68.2637 15.3995 68.2637 17.1752C68.2637 18.0789 68.511 18.8969 68.9106 19.4899C69.2942 20.0606 69.8174 20.4221 70.3977 20.4475C70.4199 20.4506 70.4452 20.4506 70.4674 20.4506H80.4873C82.45 20.4506 84.0386 22.8161 84.0386 25.7332V36.4094C84.0386 33.9584 82.7037 31.9703 81.0548 31.9703C80.2336 31.9703 79.4853 32.4681 78.9462 33.2703C78.4072 34.0725 78.0711 35.1823 78.0711 36.4094V37.8902C78.0711 38.0646 77.976 38.2073 77.8586 38.2073C77.7413 38.2073 77.6462 38.0646 77.6462 37.8902V30.5434C77.6462 28.1811 76.3588 26.2628 74.7703 26.2628C73.9744 26.2628 73.2578 26.7416 72.7346 27.5184C72.2146 28.2921 71.8911 29.3607 71.8911 30.5434V37.7317C71.8911 37.9948 71.7485 38.2073 71.5709 38.2073C71.3933 38.2073 71.2506 37.9948 71.2506 37.7317V24.8359C71.2506 22.4736 69.9633 20.5553 68.3747 20.5553C67.5788 20.5553 66.8622 21.0341 66.339 21.8109C65.819 22.5846 65.4956 23.6532 65.4956 24.8359V37.7317C65.4956 37.9948 65.3529 38.2073 65.1753 38.2073C64.9978 38.2073 64.8551 37.9948 64.8551 37.7317V19.4455C64.8551 16.9088 63.4726 14.8478 61.7635 14.8478C60.9106 14.8478 60.1369 15.3646 59.5788 16.1954H59.5756Z" fill="black"/>
<path d="M99.8897 74.3548C102.166 74.3548 104.012 72.5092 104.012 70.2327C104.012 67.9561 102.166 66.1106 99.8897 66.1106C97.6131 66.1106 95.7676 67.9561 95.7676 70.2327C95.7676 72.5092 97.6131 74.3548 99.8897 74.3548Z" fill="white"/>
<path d="M99.8896 73.4034C101.641 73.4034 103.06 71.9838 103.06 70.2326C103.06 68.4814 101.641 67.0618 99.8896 67.0618C98.1384 67.0618 96.7188 68.4814 96.7188 70.2326C96.7188 71.9838 98.1384 73.4034 99.8896 73.4034Z" fill="black"/>
<path d="M82.6309 75.9402C87.5013 75.9402 92.3716 75.9402 97.242 75.9402C96.4779 75.2141 95.2793 73.8792 94.4866 71.8657C93.3134 68.8851 93.7414 66.2343 93.9792 65.1594C90.1964 68.752 86.4137 72.3477 82.6309 75.9402Z" fill="#DC5B26"/>
<path d="M51.1031 61.8046C51.6644 60.9738 52.01 59.8228 52.01 58.5545V6.0741C52.01 3.15694 50.4182 0.791504 48.4587 0.791504H37.0595C36.3842 0.791504 35.7215 1.08005 35.1507 1.62226C29.4305 7.04755 23.7167 12.476 17.9965 17.9013C17.2165 18.6433 16.1923 17.803 16.1987 16.4269C16.1987 16.4142 16.1987 16.3983 16.1987 16.3856C16.1987 15.9703 16.3001 15.5802 16.4745 15.2727C16.6109 15.0349 16.7567 14.9112 16.7884 14.8858C17.0833 14.6258 23.1459 8.82955 31.5486 0.791504H4.19391C2.23433 0.791504 0.642578 3.15694 0.642578 6.0741V58.2628C0.642578 59.7911 1.08966 61.2465 1.86335 62.2517C5.38614 66.805 8.90576 71.3583 12.4285 75.9116C13.0754 76.7487 13.903 77.2085 14.7591 77.2085H50.0377C50.6592 77.2085 51.249 76.7519 51.5851 75.9718C52.289 74.3389 52.0544 72.6361 51.3663 71.6151C50.9668 71.0222 50.4182 70.6544 49.8094 70.6544H44.9073C46.1218 70.6544 47.1079 69.1894 47.1079 67.3789C47.1079 66.472 46.8606 65.654 46.461 65.061C46.0615 64.4681 45.513 64.1034 44.9042 64.1034H40.2145C40.2367 64.1034 40.2621 64.1034 40.2843 64.1003C41.467 64.0464 42.4151 62.6005 42.4151 60.8248C42.4151 59.9211 42.1677 59.103 41.7682 58.5101C41.3845 57.9393 40.8614 57.5779 40.2811 57.5525C40.2589 57.5493 40.2335 57.5493 40.2113 57.5493H30.1915C28.2288 57.5493 26.6402 55.1839 26.6402 52.2667V41.5905C26.6402 44.0416 27.9751 46.0297 29.6239 46.0297C30.4452 46.0297 31.1935 45.5319 31.7325 44.7297C32.2716 43.9275 32.6077 42.8177 32.6077 41.5905V40.1098C32.6077 39.9354 32.7028 39.7927 32.8201 39.7927C32.9375 39.7927 33.0326 39.9354 33.0326 40.1098V47.4566C33.0326 49.8188 34.3199 51.7372 35.9085 51.7372C36.7044 51.7372 37.421 51.2584 37.9442 50.4816C38.4642 49.7079 38.7876 48.6393 38.7876 47.4566V40.2683C38.7876 40.0051 38.9303 39.7927 39.1079 39.7927C39.2855 39.7927 39.4282 40.0051 39.4282 40.2683V53.1641C39.4282 55.5263 40.7155 57.4447 42.3041 57.4447C43.1 57.4447 43.8166 56.9659 44.3398 56.189C44.8598 55.4154 45.1832 54.3468 45.1832 53.1641V40.2683C45.1832 40.0051 45.3259 39.7927 45.5035 39.7927C45.681 39.7927 45.8237 40.0051 45.8237 40.2683V58.5545C45.8237 61.0911 47.2062 63.1522 48.9153 63.1522C49.7682 63.1522 50.5419 62.6353 51.1 61.8046H51.1031Z" fill="black"/>
<path d="M10.7893 11.8894C13.0659 11.8894 14.9114 10.0439 14.9114 7.76734C14.9114 5.49078 13.0659 3.64526 10.7893 3.64526C8.51275 3.64526 6.66724 5.49078 6.66724 7.76734C6.66724 10.0439 8.51275 11.8894 10.7893 11.8894Z" fill="white"/>
<path d="M10.7892 10.9383C12.5404 10.9383 13.9601 9.51871 13.9601 7.76751C13.9601 6.01631 12.5404 4.59668 10.7892 4.59668C9.03804 4.59668 7.61841 6.01631 7.61841 7.76751C7.61841 9.51871 9.03804 10.9383 10.7892 10.9383Z" fill="black"/>
<path d="M28.0479 2.05981C23.1776 2.05981 18.3072 2.05981 13.4368 2.05981C14.2009 2.78593 15.3995 4.12085 16.1922 6.13433C17.3654 9.11491 16.9374 11.7657 16.6996 12.8406C20.4823 9.24808 24.2651 5.65236 28.0479 2.05981Z" fill="#DC5B26"/>
<path d="M119.688 13.1387V6.37217L124.743 3.37891C127.558 3.67696 130.65 5.04993 132.381 6.37217L130.811 12.6536L127.282 8.95956V10.5228L132.359 15.0793V21.6302L127.488 23.8688C124.051 23.7071 120.773 23.0063 118.372 21.6302L119.964 15.4566L124.787 19.0428V18.1011L119.685 13.1419L119.688 13.1387Z" fill="black"/>
<path d="M140.368 3.41064C143.114 3.68016 146.415 5.02776 148.007 6.26755L149.393 18.5038L150.753 18.7733L149.091 23.6786C146.206 23.5708 143.114 22.8415 141.659 21.979L141.843 20.4412L141.751 19.5787L139.95 19.065L139.836 20.3873L141.037 20.6029L139.652 23.7039C137.435 23.4344 135.314 22.5434 133.951 21.627V16.9628L135.774 6.26121L140.365 3.4043L140.368 3.41064ZM140.137 15.4027L141.475 15.7008L141.129 9.04203L140.552 8.88032L140.137 15.4027Z" fill="black"/>
<path d="M158.715 7.20936L160.329 3.22046C162.843 3.62633 165.453 4.92002 167.092 6.37543L165.453 13.0342L167.184 14.2486L167.53 21.6081L162.891 23.926C161.299 23.7389 159.06 22.9018 157.906 22.2549L157.167 23.7104C155.458 23.5486 152.668 22.6862 151.235 21.6335V8.61087L149.665 8.23354L151.165 3.54388C153.819 3.59779 156.98 4.56806 158.712 5.72541V7.20936H158.715ZM158.715 13.3544L159.498 12.679L159.682 9.22918L158.712 8.82648V13.3544H158.715ZM158.715 15.9418V18.2058L160.49 18.9319V17.9616L158.715 15.9387V15.9418Z" fill="black"/>
<path d="M176.671 7.20936L178.285 3.22046C180.8 3.62633 183.409 4.92002 185.048 6.37543L183.409 13.0342L185.14 14.2486L185.486 21.6081L180.847 23.926C179.255 23.7389 177.017 22.9018 175.863 22.2549L175.124 23.7104C173.415 23.5486 170.624 22.6862 169.191 21.6335V8.61087L167.622 8.23354L169.121 3.54388C171.775 3.59779 174.937 4.56806 176.668 5.72541V7.20936H176.671ZM176.671 13.3544L177.454 12.679L177.638 9.22918L176.668 8.82648V13.3544H176.671ZM176.671 15.9418V18.2058L178.447 18.9319V17.9616L176.671 15.9387V15.9418Z" fill="black"/>
<path d="M193.334 3.41064C196.08 3.68016 199.381 5.02776 200.972 6.26755L202.358 18.5038L203.718 18.7733L202.057 23.6786C199.171 23.5708 196.08 22.8415 194.624 21.979L194.808 20.4412L194.716 19.5787L192.915 19.065L192.801 20.3873L194.003 20.6029L192.617 23.7039C190.401 23.4344 188.279 22.5434 186.916 21.627V16.9628L188.739 6.26121L193.331 3.4043L193.334 3.41064ZM193.102 15.4027L194.44 15.7008L194.095 9.04203L193.518 8.88032L193.102 15.4027Z" fill="black"/>
<path d="M212.606 18.2343L214.914 18.4214L212.86 23.9735C209.514 23.6787 206.673 22.813 204.92 21.6271V10.7956L202.589 10.4468L203.652 4.3271H211.566L211.912 2.46582C213.643 2.86852 215.51 3.86733 216.642 5.05322L214.128 12.5744L212.606 11.712V18.2343Z" fill="black"/>
<path d="M118.074 31.9481L118.765 29.9537L124.673 27.4202C127.996 28.3651 132.175 30.9525 134.388 33.4321L133.903 40.224L134.296 46.6671L127.948 49.0389C124.257 48.744 121.486 47.853 119.339 46.6671L120.008 44.0797L119.27 35.3187L122.57 33.9711L118.071 31.9481H118.074ZM125.849 43.807L127.209 44.2129V35.696L126.077 35.0745L126.423 41.8411L125.846 43.8102L125.849 43.807Z" fill="black"/>
<path d="M141.82 28.3906C144.221 28.8219 147.198 30.0363 149.253 31.4093L147.845 35.9911L146.738 38.2012L148.977 38.5246L147.639 42.8369C146.231 42.5674 144.43 41.7049 143.507 40.9217L143.092 42.9447L150.363 43.7279L148.746 47.7707L144.408 48.9566C141.316 48.7156 137.898 47.7168 135.983 46.6641L136.376 38.7941L135.777 31.4093L141.824 28.3906H141.82ZM143.482 37.6907L145.213 37.9602L143.044 33.781L143.482 37.6907Z" fill="black"/>
<path d="M151.007 38.1758V31.4093L156.061 28.416C158.877 28.7141 161.968 30.087 163.699 31.4093L162.13 37.6907L158.598 33.9967V35.5599L163.674 40.1164V46.6673L158.804 48.9059C155.366 48.7442 152.088 48.0434 149.688 46.6673L151.279 40.4937L156.102 44.0799V43.1382L151.003 38.179L151.007 38.1758Z" fill="black"/>
<path d="M125.713 53.478C128.459 53.7475 131.759 55.0951 133.351 56.3349L134.737 68.5712L136.097 68.8407L134.436 73.746C131.55 73.6381 128.459 72.9089 127.003 72.0464L127.187 70.5085L127.095 69.6461L125.294 69.1356L125.18 70.4578L126.379 70.6734L124.993 73.7745C122.776 73.505 120.655 72.614 119.292 71.6976V67.0333L121.115 56.3318L125.706 53.4749L125.713 53.478ZM125.481 65.4733L126.819 65.7713L126.474 59.1126L125.897 58.9509L125.481 65.4733Z" fill="black"/>
<path d="M136.582 58.6815L135.035 58.3042L136.582 53.6145C139.236 53.7508 142.607 55.0699 144.452 56.4461L144.081 59.6549V68.8472L145.419 68.9803L143.526 73.9141C140.85 73.6985 138.31 72.89 136.579 71.758V58.6847L136.582 58.6815Z" fill="black"/>
<path d="M153.454 59.0842V65.2039L152.899 67.3061L158.163 68.0354L156.064 71.7009L153.042 73.9934C150.41 73.7778 147.642 72.8329 145.955 71.7009V58.6815L144.386 58.3042L145.886 53.6145C148.863 53.6684 152.138 54.6926 153.987 55.9324L153.457 59.0874L153.454 59.0842Z" fill="black"/>
<path d="M164.14 53.4243C166.54 53.8555 169.518 55.07 171.572 56.4429L170.165 61.0248L169.058 63.2349L171.297 63.5583L169.959 67.8706C168.551 67.6011 166.75 66.7386 165.827 65.9554L165.412 67.9784L172.682 68.7616L171.068 72.8044L166.731 73.9903C163.639 73.7493 160.221 72.7505 158.306 71.6978L158.699 63.8278L158.1 56.4429L164.146 53.4243H164.14ZM165.802 62.7244L167.533 62.9939L165.364 58.8147L165.802 62.7244Z" fill="black"/>
<path d="M173.326 63.2093V56.4427L178.38 53.4495C181.196 53.7475 184.287 55.1205 186.019 56.4427L184.449 62.7241L180.92 59.0301V60.5933L185.997 65.1498V71.7007L181.126 73.9394C177.689 73.7776 174.41 73.0769 172.01 71.7007L173.602 65.5271L178.425 69.1133V68.1716L173.323 63.2124L173.326 63.2093Z" fill="black"/>
</svg>
