<svg width="94" height="99" viewBox="0 0 94 99" fill="none" xmlns="http://www.w3.org/2000/svg">
<path d="M66.1948 72.8682C65.7386 73.05 65.264 73.1954 64.826 73.4135C63.3842 74.1951 61.7964 74.4495 60.2269 74.6858C58.8581 74.8858 57.5258 74.4859 56.23 74.1587C54.9707 73.8497 53.7479 73.4317 52.5069 73.0863C52.1601 72.9773 51.8864 73.0863 51.8316 73.4862C51.7951 73.8497 51.7951 74.2132 51.8316 74.5768C51.8681 74.9403 52.1054 75.122 52.4704 75.0675C52.8354 75.013 53.1822 74.8676 53.5472 74.8312C54.1129 74.7767 54.5327 74.9948 54.6605 75.5583C54.7882 76.1399 55.0802 76.5034 55.5182 76.8851C56.4308 77.6485 56.4125 78.3391 55.6095 79.2479C54.989 79.9568 54.2407 80.4475 53.2917 80.6657C52.3244 80.8838 51.3754 81.1382 50.4263 81.3927C50.0613 81.4836 49.7146 81.5926 49.459 81.938C49.7693 82.4287 50.2256 82.4832 50.7183 82.356C51.6491 82.0834 52.5434 82.2469 53.4377 82.5559C54.0947 82.774 54.4962 83.2648 54.5692 83.8828C54.6422 84.5371 54.2772 85.0642 53.7114 85.4095C52.6164 86.0457 51.4301 86.1002 50.3351 85.6095C49.2035 85.1005 48.072 85.0824 46.904 85.1005C46.3199 85.1005 45.7724 85.2278 45.3344 85.5731C44.2759 86.4092 43.0896 87.0999 42.3596 88.2995C41.9398 88.972 41.4105 89.59 40.8995 90.2079C40.6258 90.5351 40.3155 90.8623 39.9687 91.0986C38.965 91.8256 37.6144 91.2803 37.4137 90.0625C37.2859 89.2628 37.3224 88.4631 37.7604 87.736C38.3079 86.8454 38.8737 85.9912 39.768 85.3732C40.8265 84.6462 41.8303 83.8101 43.0166 83.283C43.6189 83.0103 43.9839 82.6286 44.0204 81.9016C44.0751 80.1204 45.0059 78.7572 46.2652 77.6121C47.4515 76.5397 48.1997 75.2493 48.6378 73.7407C48.6925 73.5589 48.7473 73.3953 48.7838 73.2136C48.8933 72.6501 48.6743 72.2139 48.1085 72.0867C45.3344 71.4505 43.6919 71.8867 42.3778 74.395C41.9763 75.1584 41.739 75.9945 41.3923 76.776C40.717 78.3573 40.06 79.9386 39.2935 81.4836C38.4722 83.1739 37.2677 84.5916 35.6251 85.5186C33.7818 86.5546 31.8655 87.2271 29.6389 86.7545C27.3393 86.2638 25.5325 87.4089 24.766 89.6627C24.5835 90.1898 24.4375 90.7169 24.3827 91.2621C24.1637 93.007 23.379 94.5519 22.6854 96.0969C22.4117 96.6967 22.0649 97.3147 21.4992 97.7145C20.4224 98.4779 19.3273 98.9505 17.8855 98.5324C15.221 97.7691 13.8339 95.8788 12.9944 93.4432C12.7024 92.5708 12.5016 91.6802 12.3009 90.7714C11.7898 88.4631 10.1655 87.2635 8.03023 86.6455C7.1542 86.391 6.25992 86.1729 5.31089 86.5001C4.87288 86.6637 4.32536 86.5364 3.85084 86.591C2.5003 86.7545 1.62427 86.0639 0.89425 85.0642C0.364984 84.319 0.218979 83.5193 0.693494 82.6468C2.15354 79.8659 4.45311 78.321 7.61046 78.1574C9.27127 78.0665 10.9321 78.121 12.6111 78.1937C14.2537 78.2483 15.7867 77.9393 17.2833 77.3213C18.4148 76.8487 19.5646 76.3943 20.7326 76.0126C22.2292 75.5219 23.2512 74.5586 23.9812 73.1954C24.8025 71.6505 25.2405 69.9965 25.5325 68.3061C25.8428 66.5794 26.5911 65.0163 27.5401 63.5804C28.3979 62.2718 29.6937 61.4175 31.172 60.8359C32.1392 60.4542 33.1065 60.0543 34.0738 59.6544C34.4753 59.6908 34.7856 59.4909 35.0958 59.2728C36.6289 58.1822 37.5232 56.6918 37.7604 54.8379C37.9064 53.6746 37.8882 52.4932 37.6144 51.3663C37.0304 48.9671 37.3042 46.6224 37.9794 44.2959C38.6547 41.9876 39.987 40.2609 42.1771 39.2067C42.4508 39.0795 42.7246 38.9159 42.9983 38.7886C43.8744 38.3524 44.4036 37.6436 44.8051 36.7711C45.1702 35.9714 45.3162 35.1353 45.3709 34.2811C45.4074 33.8085 45.5534 33.0633 45.0606 32.9542C44.4401 32.8088 44.2211 33.554 44.0751 34.0448C43.5824 35.6988 42.5238 36.9529 41.301 38.098C40.4433 38.8977 39.6037 39.7156 38.6182 40.3518C37.6692 40.9697 37.0121 41.8422 36.4646 42.8237C35.2053 45.1138 35.0958 47.4948 35.8259 49.9486C35.9901 50.4757 36.1179 51.0028 36.3186 51.5299C36.6654 52.4932 36.5559 53.4383 36.2821 54.4198C35.9536 55.6012 35.3331 56.2374 34.0556 56.1102C33.2708 53.5292 32.4312 50.9664 31.7012 48.3673C31.1537 46.3498 31.3362 44.3686 32.3035 42.4602C33.2343 40.6244 34.3476 38.9522 36.1179 37.8072C36.1726 37.7708 36.2274 37.7345 36.2639 37.6981C37.2312 36.9529 37.8882 36.0986 37.7604 34.7354C37.6144 33.2087 38.1984 31.791 39.111 30.6095C40.644 28.6466 42.4691 27.0289 44.8781 26.1565C45.3344 25.9929 45.7724 25.8293 46.3929 25.6294C45.0972 25.3386 45.0972 25.3931 43.9839 25.5385C41.6113 25.8293 39.2387 26.2655 36.8296 26.1201C36.4646 26.1019 36.0814 26.0838 35.7529 25.9565C35.1506 25.7021 34.8038 25.2113 34.7491 24.5388C34.6578 23.3756 35.0228 22.3214 35.7164 21.4489C37.1581 19.6132 38.4904 17.6866 40.0052 15.9235C41.009 14.7603 42.0128 13.6152 43.1078 12.5246C45.2614 10.3617 47.6522 8.58049 50.5906 7.58083C51.3206 7.32637 51.8316 6.79927 52.3426 6.27217C53.4924 5.09074 54.6057 3.83661 56.0292 2.946C59.0406 1.05572 62.3439 0.0560515 65.8663 0.419567C70.6662 0.910313 74.6996 2.946 77.4919 7.03555C79.0797 9.36205 79.9923 11.943 80.5215 14.6694C80.6493 15.3237 80.6128 16.0144 80.6128 16.6869C80.6128 17.323 80.777 17.8683 81.142 18.4136C81.7443 19.286 82.3648 20.1039 83.2774 20.6674C86.2522 22.5031 88.132 25.3204 90.0483 28.1013C90.3586 28.5375 90.5411 29.0828 90.7053 29.6099C91.3441 31.591 92.0011 33.5722 92.5669 35.5715C92.9502 36.9165 93.1874 38.3161 93.2057 39.7338C93.2239 41.2606 93.2057 42.8055 93.2057 44.3504C93.2057 45.75 93.2604 47.1495 93.4612 48.5672C93.8809 51.4572 93.3517 54.2017 91.1616 56.401C90.4498 57.1098 90.0666 58.0368 89.5921 58.8911C88.6065 60.6541 87.1647 61.9991 85.6499 63.2351C84.5184 64.162 83.2226 64.9072 81.9633 65.6525C80.631 66.4522 79.0797 66.6703 77.6014 67.0702C76.3421 67.4155 75.0646 67.4337 73.7688 67.47C73.7323 67.2156 73.6593 66.9975 73.4403 66.8521C72.8198 66.4522 72.1263 66.1977 71.4145 65.9978C69.6807 65.5252 67.9651 65.7252 66.3043 66.1614C64.4975 66.6339 62.7637 66.4885 61.0299 65.9251C60.7379 65.8342 60.4459 65.7252 60.1539 65.6343C57.5988 64.78 57.5258 64.7073 57.0513 62.1264C56.7045 60.2179 57.2155 58.5821 58.7668 57.3825C59.9896 56.4373 61.1212 55.4195 62.3987 54.5652C63.8587 53.6019 64.68 52.2206 64.7165 50.403C64.7165 49.0761 65.3005 47.9129 66.1948 46.9314C66.7423 46.3498 67.3264 45.8045 67.8556 45.2047C68.9872 43.9687 69.3339 42.551 68.8412 40.9334C68.7317 40.588 68.6404 40.2245 68.4761 39.8974C68.1659 39.2794 68.2936 38.7523 68.6586 38.1888C69.7719 36.5349 71.305 35.4261 73.1665 34.8263C74.4623 34.4083 75.9041 34.3538 77.1452 34.9354C78.5322 35.5715 79.9558 36.1713 81.1238 37.2255C82.1641 38.1525 83.4964 38.1525 84.7739 38.2434C85.1937 38.2797 85.5952 38.0434 85.9237 37.7345C86.2522 37.4255 86.3252 36.8438 85.9784 36.5894C85.5404 36.2622 85.0659 35.9532 84.5732 35.7351C83.7154 35.3534 82.9853 34.8263 82.4013 34.0993C81.7808 33.3177 80.9048 32.827 80.12 32.2454C78.4044 30.9912 76.5064 30.7549 74.4988 31.1548C73.2395 31.4093 71.9803 31.7364 70.7575 32.1545C69.2974 32.6452 67.8739 33.2632 66.7241 34.3356C64.8625 36.0623 63.7127 38.0798 64.607 40.7335C64.6435 40.8425 64.6618 40.9697 64.6983 41.097C64.8078 41.7331 64.7713 42.2966 64.2785 42.8055C63.804 43.2962 63.3842 43.8233 62.9645 44.3504C61.7599 45.8772 60.8474 47.5494 60.6649 49.4942C60.5554 50.6211 60.0626 51.3299 59.2231 51.9116C58.1463 52.6568 57.2338 53.5474 56.2848 54.438C53.1457 57.3825 52.2331 61.9082 54.0217 65.7615C54.697 67.2337 55.7372 68.2879 57.3798 68.6696C57.7448 68.7423 58.0916 68.8514 58.4383 68.9786C60.0809 69.6148 61.6687 69.4694 63.293 68.8877C64.7895 68.3425 66.3408 67.8881 67.9469 67.7427C69.2974 67.6336 70.648 67.6518 71.7795 68.5969C71.8525 69.2513 71.524 69.7784 71.2502 70.3236C70.3195 72.1776 69.3339 74.0315 68.5491 75.9581C67.9834 77.3395 67.0708 78.4846 65.7386 79.2661C65.118 79.6296 64.4245 79.9386 64.0047 80.5384C63.9682 80.702 64.0413 80.7929 64.2055 80.7747C65.6838 80.5929 66.3591 81.4109 66.6146 82.7377C67.2169 82.9013 67.7461 82.6832 68.2571 82.5378C68.8411 82.3742 69.3522 82.5378 69.8632 82.7195C70.6297 83.0103 70.9947 83.592 71.0312 84.428C71.0677 85.2823 70.6662 85.8276 69.9179 86.1366C69.6989 86.2274 69.4434 86.2638 69.2244 86.391C68.7682 86.6455 67.9469 86.4819 67.9104 87.1362C67.8739 87.6088 68.6586 87.6633 69.0054 87.9723C69.2792 88.2086 69.5712 88.4631 69.7902 88.7539C70.8852 90.2988 70.2464 91.6984 68.3484 91.8256C67.3811 91.8983 66.3956 91.8619 65.41 91.6438C64.4793 91.4439 63.5302 91.0985 62.5082 91.353C61.9972 91.4802 61.5409 91.1894 61.1577 90.8804C60.7744 90.5896 60.4824 90.1898 60.0991 89.7899C59.4786 90.317 59.1683 90.9895 58.7668 91.5893C58.4383 92.0982 58.0916 92.6253 57.7996 93.1524C57.3068 94.0794 56.4673 94.5701 55.5365 94.9336C54.2224 95.4426 52.8719 94.4247 52.9267 93.0252C52.9449 92.5708 53.0909 92.1891 53.3099 91.8074C54.3502 89.9353 55.7372 88.3904 57.7996 87.627C58.6573 87.318 58.9858 86.8272 58.8763 85.9912C58.6026 83.7555 59.3326 81.7744 60.4094 79.8659C60.9386 78.9389 61.6139 78.1756 62.4717 77.5394C63.074 77.1032 63.6762 76.7033 64.2603 76.2489C65.3005 75.431 66.1036 74.4495 66.3043 73.1045C66.3408 73.0318 66.3773 72.9591 66.4138 72.8864C66.3408 72.9228 66.2678 72.9591 66.1948 73.0136V72.8682ZM54.3867 13.906C54.8065 14.6876 55.4817 15.0693 56.3213 15.2692C57.2885 15.4691 58.2558 15.5963 59.1866 15.1783C60.3729 14.6512 61.2124 13.7606 61.4314 12.4883C61.7052 10.9615 61.3402 9.59834 59.9531 8.6532C59.6064 8.07157 59.0953 7.76258 58.4201 7.67171C55.938 7.38089 54.4597 8.16245 53.8027 10.2527C53.4012 11.5431 53.4377 12.7973 54.3867 13.8878V13.906ZM38.5999 21.4671C40.1147 20.5402 41.6113 19.6314 43.0896 18.6681C43.6736 18.2864 44.2394 17.9592 44.9329 17.9047C45.8089 17.8138 46.5754 17.4139 47.3602 17.0868C47.8895 16.8687 48.2545 16.4506 48.4188 15.8872C48.51 15.5418 48.6925 15.1783 48.4735 14.833C48.2728 14.5422 47.926 14.633 47.6157 14.633C46.8127 14.5967 46.3564 13.9424 45.7359 13.6152C43.9839 14.4149 42.5786 15.5782 41.5018 17.1049C40.6805 18.25 39.8045 19.3587 38.9832 20.5038C38.8007 20.7764 38.4174 20.9946 38.5999 21.4853V21.4671ZM40.2972 22.2487C40.2972 22.2487 40.3885 22.3214 40.4433 22.3214C42.5786 22.0851 44.6956 21.867 46.831 21.6125C46.9952 21.5944 47.2325 21.5217 47.3055 21.3944C47.707 20.6674 48.364 20.2312 49.0575 19.8131C49.313 19.6677 49.2948 19.4133 49.24 19.1588C49.1853 18.9043 49.0758 18.6862 48.802 18.6317C48.072 18.4863 47.342 18.4681 46.6302 18.7771C44.7139 19.595 42.8158 20.4311 41.0273 21.5217C40.7353 21.7034 40.3338 21.8125 40.3155 22.2487H40.2972Z" fill="#050404"/>
<path d="M38.5998 21.4668C38.4173 20.9942 38.8006 20.7579 38.9831 20.4853C39.8043 19.3402 40.6804 18.2315 41.5017 17.0864C42.5967 15.5597 43.9837 14.3964 45.7358 13.5967C46.3563 13.9238 46.8126 14.5782 47.6156 14.6145C47.9076 14.6145 48.2726 14.5236 48.4734 14.8145C48.6924 15.1598 48.5281 15.5233 48.4186 15.8687C48.2544 16.4321 47.8894 16.8501 47.3601 17.0683C46.5753 17.3954 45.8088 17.8135 44.9328 17.8862C44.2392 17.9589 43.6735 18.2679 43.0895 18.6495C41.6294 19.6129 40.1146 20.5217 38.5998 21.4486V21.4668Z" fill="#DC5B25"/>
<path d="M40.2972 22.2489C40.3337 21.8126 40.7169 21.7036 41.009 21.5218C42.7975 20.4494 44.6956 19.5952 46.6119 18.7773C47.3237 18.4683 48.0354 18.4865 48.7837 18.6319C49.0575 18.6864 49.167 18.9045 49.2217 19.159C49.2765 19.4134 49.2947 19.6679 49.0392 19.8133C48.3457 20.2132 47.7069 20.6676 47.2872 21.3946C47.2142 21.5218 46.9769 21.5945 46.8126 21.6127C44.6773 21.849 42.5603 22.0853 40.4249 22.3216C40.3884 22.3216 40.3337 22.267 40.2789 22.2489H40.2972Z" fill="#DC5B25"/>
<path d="M59.9529 8.65332C61.34 9.58029 61.6867 10.9616 61.4312 12.4884C61.2122 13.7607 60.3727 14.6513 59.1864 15.1784C58.2556 15.5965 57.2883 15.4692 56.321 15.2693C56.4305 15.1784 56.5401 15.0694 56.6496 14.9785C56.8868 14.9785 57.1423 15.0148 57.3796 14.9967C59.2046 14.9058 60.2814 13.9243 60.5004 12.1249C60.6282 11.0707 60.2814 10.1074 59.8982 9.16224C59.9164 8.99866 59.9529 8.83508 59.9712 8.6715L59.9529 8.65332Z" fill="#DBDADB"/>
<path d="M54.3866 13.9062C53.4376 12.8156 53.4011 11.5433 53.8026 10.271C54.4596 8.18082 55.9379 7.38109 58.42 7.69008C58.2923 7.81731 58.1827 7.92636 58.055 8.05359C56.7227 7.96271 55.6459 8.48981 54.8976 9.56218C54.1129 10.6891 54.0581 11.9432 54.5874 13.2155C54.6421 13.3246 54.6969 13.4336 54.7516 13.5427C54.6786 13.7244 54.5874 13.888 54.3866 13.9244V13.9062Z" fill="#DBDADB"/>
<path d="M54.3865 13.9061C54.6055 13.8698 54.6968 13.7062 54.7516 13.5244C55.3721 14.0152 55.9926 14.4877 56.6314 14.9785C56.5219 15.0694 56.4124 15.1784 56.3029 15.2693C55.4816 15.0694 54.788 14.6695 54.3683 13.9061H54.3865Z" fill="#8C8888"/>
<path d="M66.1948 72.8684C66.1948 72.8684 66.3408 72.7957 66.4138 72.7412C66.3773 72.8139 66.3408 72.8866 66.3043 72.9593L66.2131 72.8684H66.1948Z" fill="#4D4D4D"/>
<path d="M58.0733 8.01717C58.6755 8.39886 59.2778 8.78055 59.8801 9.14407C60.2633 10.0892 60.6101 11.0707 60.4823 12.1067C60.2633 13.9061 59.1865 14.8876 57.3615 14.9785C57.1242 14.9785 56.887 14.9785 56.6315 14.9603C56.0109 14.4696 55.3904 13.997 54.7516 13.5063C54.6969 13.3972 54.6421 13.2881 54.5874 13.1791C54.0399 11.9068 54.1129 10.6527 54.8977 9.52576C55.6459 8.43521 56.7227 7.92629 58.055 8.01717H58.0733Z" fill="#050404"/>
</svg>
