<svg width="126" height="123" viewBox="0 0 126 123" fill="none" xmlns="http://www.w3.org/2000/svg">
<path d="M96.8367 94.0118C97.3081 94.2392 97.3244 94.7892 97.6301 95.1437C98.3402 95.9436 99.3448 96.0542 100.126 95.3512C100.828 94.7211 101.438 94.0187 101.664 93.0348C101.834 92.2429 101.93 92.2706 102.817 92.2975C104.591 92.3511 105.431 91.6899 105.689 89.9452C105.853 88.8561 105.72 87.7729 105.124 86.8227C104.122 85.2563 102.867 83.9787 101.002 83.4035C99.5535 82.9694 98.2685 82.9653 97.1032 84.1778C96.0777 85.2516 94.7865 86.0199 93.5069 86.7625C91.5968 87.8727 90.7958 89.4816 90.9989 91.6505C91.0552 92.2494 91.0109 92.8652 91.0414 93.4526C91.1212 95.2405 92.5974 96.1988 94.32 95.6089C94.8996 95.3889 95.4276 95.1457 95.8704 94.6781C96.1501 94.4008 96.3686 94.0183 96.8367 94.0118Z" fill="#050404"/>
<path d="M107.744 65.2711C110.834 64.3972 112.063 62.1124 112.543 59.1496C112.922 56.8239 112.583 54.5783 112.028 52.3289C111.716 51.0568 110.951 49.9997 110.065 49.0741C109.496 48.4772 109.077 47.8235 108.73 47.0783C107.315 43.9149 105.153 41.3771 101.987 39.7984C101.251 39.4363 100.806 38.9419 100.635 38.1515C100.549 37.7563 100.444 37.3682 100.358 36.9729C100.294 36.6338 100.304 36.2663 100.153 35.9814C98.8014 33.4356 97.7135 30.6828 95.4866 28.7047C94.4553 27.7914 93.6832 26.7156 92.9717 25.5739C92.7621 25.2471 92.5872 24.8429 92.5084 24.4664C92.0363 21.7579 90.973 19.2952 89.5055 17.0074C88.2876 15.0954 86.6243 13.5878 84.7934 12.315C80.7912 9.49216 76.266 8.72885 71.4795 9.30543C68.9038 9.62021 66.5649 10.6151 64.3822 12.0214C61.2937 14.0282 59.114 16.7381 57.5289 20.0565C55.7511 23.7689 55.535 27.5944 56.1784 31.5427C56.3418 32.5929 56.8515 33.5973 57.2161 34.614C57.429 35.1749 57.6491 35.7544 57.862 36.3153C58.0182 36.7266 58.0151 37.1128 57.6934 37.4489C56.6492 38.5298 56.5445 39.8316 56.6836 41.212C56.8077 42.3841 56.7543 42.4686 55.7544 42.9338C54.1028 43.7106 52.5382 44.604 51.0846 45.7335C48.0607 48.0794 46.9482 51.3467 46.832 54.9845C46.7348 57.5455 47.2623 60.0618 47.8156 62.5898C48.2618 64.6664 49.0116 66.585 49.7195 68.5622C50.2586 68.7426 50.3051 69.2597 50.4871 69.6826C50.7658 70.304 51.0935 70.8855 51.6243 71.3257C53.7758 73.1613 54.8855 75.5208 55.3673 78.3112C55.7271 80.442 56.5756 82.4515 57.7838 84.2816C58.5327 85.409 59.549 86.1141 60.789 86.5631C61.8111 86.9451 62.3507 86.6761 62.6766 85.6754C62.8454 85.1621 62.9626 84.6256 62.9979 84.0988C63.2587 80.8982 64.6906 78.4721 67.4645 76.8201C68.9846 75.9221 70.2247 74.6812 71.4506 73.4029C72.3363 72.4677 73.1819 71.4836 73.8141 70.3879C74.8484 68.6049 74.8691 66.8002 73.6893 65.0449C73.4538 64.7064 73.2558 64.3538 73.0088 64.0412C71.8323 62.5199 71.4997 60.7424 71.5997 58.8648C71.6388 58.1227 71.7411 57.378 71.806 56.6474C71.9017 55.4346 71.871 54.227 71.7069 53.0059C71.5763 51.9859 71.077 51.2343 70.3115 50.6265C69.0552 49.6275 67.6508 49.027 66.0015 49.2467C65.4729 49.3191 64.9397 49.436 64.3897 49.4523C63.0744 49.481 62.1418 48.6586 62.0222 47.442C61.9219 46.3891 62.7159 45.3818 63.8829 45.1312C67.0072 44.4584 69.9255 44.9334 72.6128 46.7153C74.7416 48.1531 76.0252 50.1257 76.4406 52.6846C76.7429 54.495 76.7995 56.3345 76.5377 58.1238C76.2758 59.9131 76.7128 61.4584 77.7158 62.9172C78.3822 63.8835 78.7235 64.9518 78.9483 66.1071C79.5127 69.0586 78.901 71.7294 77.2047 74.1916C75.2339 77.0576 72.9458 79.5947 69.9314 81.4023C68.7943 82.0693 67.9461 82.9903 67.4926 84.2748C67.2426 84.9686 66.9739 85.6695 66.6724 86.3402C66.3709 87.0108 66.0248 87.677 65.6459 88.3128C65.0066 89.3898 64.0441 89.8407 62.8017 89.9488C60.3614 90.1694 58.312 89.279 56.3709 87.941C54.6574 86.752 53.3661 85.2101 52.733 83.2044C52.2019 81.5237 51.6707 79.843 51.2775 78.1313C51.0606 77.1655 50.6664 76.3526 50.1342 75.5706C49.7504 75.0105 49.2874 74.5232 48.8662 73.9772C47.7368 72.5236 46.9671 70.8906 46.5197 69.0926C46.273 67.7103 45.9373 66.319 45.7911 64.9199C45.6223 63.123 44.9603 61.492 44.1932 59.9222C43.379 58.2848 41.9564 57.242 40.1825 56.739C38.7929 56.3467 37.3905 56.2588 35.9753 56.4752C35.0443 56.6148 34.1037 56.6725 33.163 56.7301C32.7207 56.7483 32.5058 56.2951 32.6398 55.8592C32.8685 55.1093 33.4234 54.5991 33.9668 54.1147C35.2238 52.9744 36.502 51.8902 37.8931 50.9342C39.0883 50.1382 39.7107 48.9607 39.9321 47.5718C40.0647 46.7942 39.8607 46.1444 39.3035 45.5217C38.3889 44.5213 37.3332 43.9381 35.9638 43.8805C34.0488 43.7947 32.1636 44.1254 30.4062 44.7926C26.9288 46.1128 23.3494 47.1081 19.8055 48.1969C16.6426 49.1624 13.5578 50.3336 10.4446 51.43C9.40919 51.8017 8.55506 52.4255 7.74353 53.1614C6.51689 54.2688 7.43563 56.2943 8.69364 56.5654C9.3004 56.6987 9.89489 56.6869 10.4913 56.5674C12.4744 56.1568 14.515 56.0665 16.5325 56.0279C18.4049 56.0015 19.2581 56.8968 19.1955 58.7602C19.186 59.2986 19.0946 59.8466 19.0593 60.3734C18.86 64.2994 21.3342 67.2104 24.8768 68.0901C26.2005 68.4217 27.5352 68.5567 28.886 68.6214C29.4315 68.6496 29.9628 68.6405 30.5083 68.6687C33.4465 68.858 35.3627 70.9754 35.8129 73.457C36.0738 74.8766 36.552 76.1924 37.0372 77.5269C37.9962 80.2217 39.8459 82.1078 42.3415 83.3849C44.5134 84.4855 46.7549 85.4313 49.2044 85.742C50.6236 85.9305 51.8456 86.5575 52.8614 87.7119C54.7661 89.8552 57.0619 91.5076 59.7928 92.5029C61.5531 93.1394 63.4127 93.4174 65.1417 92.6754C67.1325 91.834 69.0224 92.0791 70.844 92.8207C73.7278 93.9933 76.697 94.3205 79.7583 94.2706C79.7957 94.2564 79.8382 94.3686 79.9369 94.4595C78.7269 95.0472 77.413 95.4177 76.3468 96.2717C75.4205 96.987 74.6116 97.7861 73.96 98.718C73.1944 99.8001 72.8717 101.035 73.4202 102.367C74.0015 103.729 75.5123 103.99 76.5306 102.897C76.8336 102.568 76.8218 101.974 77.3995 101.861C77.8476 102.14 77.8381 102.679 78.1439 103.033C78.6424 103.614 79.1874 104.092 79.9418 104.276C80.8555 104.485 81.6672 104.37 82.3453 103.62C82.9512 102.962 83.4681 102.295 83.6587 101.389C83.7848 100.763 84.035 100.69 84.7191 100.858C84.9113 100.913 85.0989 101.013 85.2911 101.069C86.4085 101.307 87.1183 100.867 87.3758 99.7423C87.5922 98.8473 87.4366 97.9866 86.9676 97.2021C86.3173 96.1655 85.5201 95.2489 84.4922 94.5696C83.7177 94.0508 82.8691 93.7313 81.8401 93.9508C83.199 93.1354 84.6509 92.7339 85.8337 91.7929C86.9979 90.8589 88.1433 89.9321 88.9973 88.6881C89.7977 87.5285 90.6426 86.3735 91.4431 85.214C91.9503 84.4653 92.5987 83.9196 93.4729 83.6305C94.5038 83.3033 95.5037 82.8381 96.554 82.6747C100.643 82.0635 103.017 79.4721 104.388 75.8714C105.241 73.6654 105.491 71.2816 105.184 68.8955C105.109 68.3036 104.907 67.7169 104.769 67.1277C104.465 65.8743 104.349 64.6132 104.721 63.3384C104.906 62.7549 105.046 62.1668 105.257 61.5948C106.428 58.3694 105.85 55.3805 104.068 52.5486C103.209 51.1852 102.367 49.8147 101.519 48.4255C101.349 48.1476 101.222 47.8111 101.127 47.5049C101.046 47.236 101.111 46.9549 101.41 46.8413C101.653 46.749 101.761 46.9218 101.888 47.0875C101.975 47.2041 102.037 47.3092 102.105 47.433C102.893 49.5082 104.269 51.1036 106.088 52.4022C107.672 53.5333 108.115 55.205 107.937 57.0478C107.87 57.7152 107.662 58.3503 107.486 59.0157C107.187 60.199 106.899 61.3564 106.574 62.528C106.244 63.7442 106.66 64.6132 107.711 65.2408L107.744 65.2711ZM98.1079 47.0467C97.2509 46.3668 96.3306 45.6894 95.4825 44.9205C94.3197 43.886 93.0847 42.9431 91.724 42.1762C90.4807 41.4931 89.2374 40.8101 88.0405 40.0238C87.0196 39.3633 85.9453 38.7872 84.8129 38.3401C82.9397 37.5753 81.078 36.7847 79.1816 36.0716C78.2814 35.7288 77.6545 35.2609 77.4937 34.2738C77.4433 33.9721 77.1099 33.7137 77.387 33.3732C77.8312 33.2473 78.1717 33.5244 78.5445 33.661C80.9542 34.5429 83.3639 35.4249 85.8709 36.056C86.459 36.1964 87.0542 36.3554 87.6628 36.381C89.5404 36.4811 90.865 35.2937 91.0985 33.4296C91.2252 32.3547 91.0011 31.3703 90.3168 30.5819C89.3925 29.4997 89.2239 28.323 89.4408 26.9786C89.5232 26.5195 89.4908 26.0398 89.5216 25.5576C89.5325 25.3609 89.5479 25.1197 89.8406 25.1583C89.9483 25.1602 90.0799 25.2814 90.1154 25.3749C90.378 26.0667 90.7412 26.7416 90.9032 27.4501C91.1079 28.2709 91.4827 28.92 92.0889 29.5027C92.7681 30.1647 93.3492 30.9066 93.8814 31.6885C95.6991 34.3354 97.0263 37.2112 97.9305 40.269C98.4978 42.2141 98.7519 44.2354 98.5449 46.2819C98.525 46.5675 98.4464 46.8113 98.0751 47.0164L98.1079 47.0467ZM65.5974 30.4908C64.774 28.3221 65.612 25.4584 67.5213 24.1774C69.3817 22.9363 71.2605 22.7578 73.2804 24.4722C74.7225 25.6788 75.2278 27.3479 75.1136 29.1881C74.9686 31.5105 73.452 33.2628 70.8976 33.6337C68.563 33.9639 66.3949 32.6479 65.5787 30.4979L65.5974 30.4908ZM91.8646 44.5186C86.4732 42.544 81.3672 39.9691 76.1452 37.6522C75.9905 37.5826 75.9008 37.4027 75.7621 37.2628C76.1211 36.9126 76.5048 36.8525 76.9078 36.9562C77.2921 37.067 77.6835 37.1965 78.0214 37.4104C79.3118 38.1612 80.6505 38.7011 82.1309 38.9947C83.5224 39.2792 84.796 39.9294 85.8486 40.8988C86.8424 41.8263 87.9967 42.5004 89.2696 42.9797C90.2143 43.3269 91.0939 43.7844 91.8201 44.5141L91.8646 44.5186Z" fill="#050404"/>
<path d="M98.1078 47.0466C98.4605 46.8486 98.539 46.6048 98.5776 46.3121C98.7846 44.2656 98.5306 42.2443 97.9633 40.2993C97.0591 37.2414 95.7061 34.354 93.9142 31.7187C93.382 30.9368 92.7822 30.202 92.1217 29.5329C91.5084 28.9315 91.1407 28.3011 90.936 27.4803C90.7669 26.7531 90.4108 26.0969 90.1481 25.4051C90.1127 25.3116 89.9811 25.1905 89.8734 25.1886C89.5807 25.15 89.5653 25.3911 89.5544 25.5878C89.5165 26.0513 89.556 26.5497 89.4736 27.0088C89.2496 28.3345 89.4253 29.5298 90.3496 30.6121C91.0152 31.4076 91.258 32.3849 91.1313 33.4598C90.8978 35.3239 89.5803 36.53 87.6956 36.4113C87.1056 36.3786 86.4918 36.2266 85.9037 36.0862C83.4154 35.448 80.9941 34.5918 78.5772 33.6912C78.2045 33.5546 77.8827 33.2704 77.4198 33.4034C77.1356 33.7252 77.4761 34.0023 77.5265 34.3041C77.6873 35.2911 78.3141 35.759 79.2143 36.1018C81.1108 36.8149 82.9725 37.6055 84.8457 38.3703C85.978 38.8174 87.0337 39.4006 88.0732 40.054C89.2631 40.8216 90.5064 41.5047 91.7568 42.2064C93.1174 42.9733 94.3454 43.8975 95.5153 44.9506C96.3634 45.7196 97.2836 46.3969 98.1407 47.0769L98.1078 47.0466Z" fill="#DC5B25"/>
<path d="M65.5974 30.4912C66.4137 32.6412 68.563 33.9642 70.9163 33.6269C73.452 33.2632 74.9686 31.5109 75.1323 29.1813C75.2465 27.3412 74.7412 25.672 73.2991 24.4655C71.2863 22.7697 69.4004 22.9295 67.54 24.1706C65.612 25.4588 64.7856 28.2966 65.6161 30.4841L65.5974 30.4912ZM68.4989 24.5553C69.7141 24.0939 70.8309 24.1619 71.8678 24.7522C73.6767 25.7981 74.6485 28.1885 74.0411 30.1946C73.5953 31.6686 72.6091 32.6206 71.0773 32.9241C69.2437 33.278 67.52 32.4564 66.631 30.8474C65.584 28.9347 65.8116 26.7734 67.1729 25.4009C67.5551 24.9991 68.0528 24.7888 68.4873 24.5811L68.4989 24.5553Z" fill="#DBDADB"/>
<path d="M91.8646 44.5183C91.1384 43.7887 90.2401 43.3383 89.3141 42.9839C88.0412 42.5046 86.9056 41.8234 85.8931 40.903C84.8334 39.9149 83.5598 39.2648 82.1754 38.9989C80.695 38.7053 79.3376 38.1725 78.0659 37.4147C77.728 37.2007 77.3366 37.0712 76.9523 36.9605C76.5493 36.8568 76.147 36.924 75.8066 37.2671C75.9195 37.3953 76.035 37.5868 76.1897 37.6564C81.4001 39.9992 86.5061 42.5741 91.9091 44.5228L91.8646 44.5183Z" fill="#DC5B25"/>
<path d="M68.4988 24.5547C68.0643 24.7624 67.5666 24.9728 67.1844 25.3746C65.8231 26.747 65.5955 28.9083 66.6425 30.821C67.5315 32.4301 69.2623 33.2703 71.0888 32.8977C72.6207 32.5942 73.6068 31.6423 74.0526 30.1682C74.66 28.1622 73.6882 25.7717 71.8794 24.7258C70.8611 24.1284 69.7257 24.0675 68.5104 24.5289L68.4988 24.5547Z" fill="#050404"/>
</svg>
