<svg width="97" height="128" viewBox="0 0 97 128" fill="none" xmlns="http://www.w3.org/2000/svg">
<path d="M72.6233 121.191C72.7553 120.945 72.7289 120.587 72.7025 119.937C72.7025 119.489 72.8346 119.041 72.8874 118.593C72.9402 118.145 73.0987 117.697 72.7553 117.271C72.2271 117.159 71.9366 117.473 71.6197 117.719C70.9066 118.279 70.0087 118.346 69.1108 118.279C67.7639 118.189 67.2093 117.226 68.0544 116.397C69.0051 115.456 69.6918 114.426 70.2728 113.306C70.3256 113.238 70.4049 113.149 70.4577 113.082C70.3785 113.126 70.2992 113.194 70.1936 113.238C69.4805 113.171 68.7675 113.238 68.1072 113.485C67.4205 113.731 66.7339 113.798 66.0208 113.709C65.7831 113.686 65.4662 113.597 65.3342 113.462C65.0701 113.126 65.4398 112.947 65.7039 112.746C66.3642 112.253 67.0244 111.715 67.7111 111.267C69.3485 110.214 71.1179 109.34 73.1251 108.892C73.6269 108.78 74.1815 108.735 74.4456 108.243C75.502 106.159 76.7168 104.143 76.664 101.791C76.6376 100.312 77.2714 98.9679 78.1694 97.7357C78.8296 96.8396 79.5427 95.9659 80.2293 95.0922C80.4142 94.8458 80.6255 94.5993 80.7575 94.3081C80.8632 94.0617 80.6519 93.8601 80.3614 93.8376C80.1237 93.8376 79.8332 93.9049 79.5955 93.9945C77.4035 94.801 75.7661 96.1003 74.604 97.9149C72.3856 101.343 69.3485 103.986 64.7267 105.017C64.5683 105.061 64.4098 105.151 64.2778 105.241C64.3306 105.308 64.357 105.397 64.4098 105.42C64.5683 105.487 64.7267 105.532 64.8852 105.599C66.5754 106.518 66.5754 106.674 65.1229 107.817C64.4098 108.377 63.7496 109.004 63.0365 109.564C62.3763 110.08 61.7688 110.685 60.9765 110.998C59.2071 111.715 58.7053 113.014 58.494 114.471C58.4148 114.986 58.494 115.523 58.362 116.061C58.0451 117.674 56.3812 119.153 54.559 119.489C54.1364 119.556 53.6082 119.22 53.6346 118.861C53.6874 118.503 53.7667 118.122 53.8987 117.764C54.1364 117.114 54.4533 116.487 54.6382 115.837C54.7174 115.568 54.6382 115.12 54.4533 115.008C54.1364 114.807 53.8459 115.12 53.6346 115.367C53.2649 115.792 52.8951 116.218 52.499 116.621C52.0236 117.092 51.4162 117.383 50.7295 117.607C50.0693 117.809 49.409 117.697 49.0393 117.271C48.696 116.868 48.7488 116.442 49.0129 115.994C49.5147 115.12 50.2277 114.314 50.4654 113.328C50.5182 113.238 50.5711 113.126 50.6239 113.037C50.5182 113.082 50.3862 113.126 50.2806 113.171C49.3298 113.171 48.5639 113.574 47.7716 113.888C47.1906 114.112 46.5832 114.202 45.9493 114.023C45.2891 113.843 44.9722 113.194 45.4476 112.768C46.3719 111.939 47.3491 111.177 48.247 110.326C49.3034 109.363 50.6239 108.735 52.05 108.287C52.5518 108.131 53.08 108.041 53.5818 107.884C54.4533 107.615 54.6382 107.324 54.6646 106.54C54.691 105.913 54.3477 105.532 53.6874 105.33C51.8387 104.77 49.9636 104.277 48.1678 103.65C46.636 103.135 45.5004 103.359 44.3912 104.434C42.3576 106.45 39.6638 107.705 36.7587 108.444C34.1441 109.094 31.8201 110.169 29.6281 111.469C27.0663 113.014 24.3725 114.336 21.5467 115.456C19.9885 116.061 18.5888 116.868 17.3211 117.809C15.8421 118.906 14.416 120.049 12.8578 121.057C10.3225 122.76 7.97199 124.597 6.07049 126.814C5.85921 127.061 5.59511 127.263 5.3046 127.442C4.43307 128.002 3.29745 127.755 2.84848 126.904C2.6372 126.501 2.45234 126.053 2.32029 125.627C1.13185 122.043 0.630066 118.369 0.101868 114.695C-0.0565948 113.664 -0.0301895 112.566 0.181091 111.513C1.02621 107.324 2.3467 103.247 4.67077 99.4607C5.35742 98.3182 5.88562 97.1084 6.41382 95.8987C7.62867 93.1208 8.42096 90.2532 9.13403 87.3633C10.2961 82.5915 13.4388 78.9398 18.1926 76.2963C20.5959 74.9745 23.2105 73.9664 26.0891 73.6752C26.9079 73.5856 27.6737 73.4288 28.334 73.0255C28.5717 72.8911 28.6773 72.6671 28.5981 72.443C28.5453 72.3086 28.4132 72.1518 28.2812 72.107C27.9642 71.995 27.6209 71.9054 27.2776 71.8382C25.0856 71.3901 23.4482 70.3372 22.3125 68.657C21.6523 67.6489 21.2297 66.5959 20.8336 65.4982C19.4339 61.6449 20.7808 58.1277 24.6366 55.6858C25.9043 54.8793 26.8022 53.9384 27.1984 52.5942C27.5153 51.4965 27.9642 50.4212 28.4396 49.3458C30.2883 45.2909 33.4839 42.4682 38.5018 41.1912C40.5089 40.676 42.4632 40.3175 44.444 41.1912C44.5232 41.2136 44.6289 41.1912 44.7081 41.1912C43.9422 41.7513 44.7873 42.6698 44.0478 43.2971C43.4932 43.7676 43.0971 44.3948 42.6481 44.9549C41.9879 45.7838 41.5389 46.6799 41.2484 47.6208C41.0107 48.3601 40.773 49.0994 40.7202 49.8387C40.4561 53.0199 38.7659 55.417 35.5967 57.1196C33.9065 58.0381 32.6388 59.2926 31.556 60.704C30.2091 62.4738 29.8658 64.4901 29.6281 66.5287C29.6017 66.8648 29.8393 67.2456 30.0506 67.5817C30.1563 67.7385 30.4732 67.8505 30.7109 67.8953C30.7901 67.8953 30.975 67.7161 31.0278 67.6041C31.1334 67.4024 31.1862 67.1784 31.2655 66.9544C32.6388 62.8995 35.5967 59.9199 39.9015 57.8589C40.6674 57.478 41.4861 57.1644 42.252 56.7835C43.0707 56.3579 43.5196 55.753 43.414 54.9017C43.3612 54.4537 43.3612 54.0056 43.3348 53.5351C43.2555 51.7877 43.4404 50.0627 44.4176 48.4721C44.6553 48.0689 44.8401 47.6432 44.9986 47.2176C45.6324 45.4478 46.636 43.8796 48.4319 42.7594C48.8544 42.4906 48.4583 42.2442 48.3791 41.9977C49.2242 42.0873 49.9636 41.8857 50.6239 41.4377C52.8687 39.9591 55.14 38.5029 57.3848 37.0019C57.8074 36.7331 58.2035 36.4195 58.5204 36.0386C59.3391 35.0305 60.3691 34.2016 61.3199 33.3055C62.9309 31.8045 63.9609 30.0795 63.776 27.9736C63.7232 27.436 63.8024 26.9207 63.776 26.383C63.6703 24.5684 64.3306 22.933 65.6775 21.5441C66.6547 20.5359 67.3149 19.4158 67.8959 18.2284C69.3221 15.2937 68.9787 12.6502 66.5226 10.1859C65.7303 9.37937 65.0965 8.43845 64.5419 7.49754C62.9573 4.78681 64.1193 2.63615 66.3642 0.776721C66.9716 0.283861 67.6846 0.0598341 68.5298 0.0150286C70.0087 -0.0745823 71.3556 0.239056 72.5969 0.888735C74.3399 1.78484 76.1094 1.96407 78.2222 1.60562C81.946 0.933541 85.5113 1.78484 88.7069 3.44265C91.5856 4.94363 92.0345 8.21443 89.8161 10.3651C89.3407 10.8131 88.8389 11.2836 88.2579 11.5972C86.3564 12.6502 84.9831 14.1287 83.3457 15.4281C82.6326 15.9882 82.3685 16.6827 82.4742 17.4668C82.527 17.9148 82.527 18.3853 82.659 18.8109C83.4513 21.4992 83.24 24.0532 81.2329 26.3606C81.1801 26.4278 81.1537 26.4951 81.1008 26.5623C80.8367 27.0103 80.8632 27.4584 81.2593 27.8168C81.7347 28.2649 82.2365 28.7129 82.7647 29.1162C84.6134 30.5499 86.0659 32.275 87.4656 34.0448C88.2843 35.0529 88.8389 36.1506 89.2351 37.338C89.4199 37.8532 89.4992 38.3685 89.4199 38.9062C89.1558 40.3175 88.7861 41.7289 88.5748 43.1403C88.3107 44.7981 88.1259 46.4559 89.0766 48.0241C89.4464 48.6514 89.6576 49.301 89.4992 49.9955C89.1294 50.1523 88.7861 50.3092 88.4164 50.466C86.0659 50.9812 84.27 52.191 82.7911 53.7368C82.3421 54.2072 81.946 54.7225 81.5234 55.1929C80.2293 56.6939 78.6975 57.9037 76.6112 58.5534C75.185 59.0014 73.8645 59.6063 72.5969 60.3456C70.2464 61.6897 68.8203 63.5044 68.5826 65.9463C68.4505 67.2232 68.2657 68.5002 67.4734 69.6651C66.8395 70.5836 65.968 71.1437 64.7003 71.2109C63.9873 71.2557 63.2742 71.2781 62.5611 71.3229C59.1014 71.4349 56.3812 72.7567 54.4797 75.1538C51.5482 78.8502 49.726 82.9499 48.9072 87.3185C48.696 88.4162 48.7488 89.5811 48.828 90.7237C48.9865 92.6279 49.9108 94.2857 51.6803 95.4282C54.691 97.3549 58.0451 98.4974 61.9009 97.8477C65.0173 97.3101 67.579 96.0555 68.9259 93.4792C69.0315 93.2776 69.0844 93.0536 69.1372 92.8295C69.19 92.5831 68.6882 92.2022 68.4505 92.2919C68.1336 92.4039 67.7903 92.5159 67.5262 92.7175C65.9944 93.8152 64.1721 94.3753 62.2442 94.801C59.0486 95.4955 56.1964 94.4425 54.559 92.0006C53.7667 90.8133 53.5554 89.6259 53.9515 88.3042C55.0079 84.7421 56.6189 81.4265 58.9694 78.335C59.7089 77.3492 60.6596 76.5875 61.9273 76.1171C63.3006 75.6018 64.6475 74.9522 66.0472 74.5265C68.3713 73.8096 69.9295 72.443 71.0915 70.6732C71.8838 69.4635 72.4384 68.1865 72.7025 66.8424C73.0194 65.1622 74.1815 64.154 76.0037 63.6164C76.1622 63.5716 76.3207 63.4596 76.4791 63.4372C79.5427 62.8099 81.6819 61.1969 83.108 58.867C85.0095 55.7754 88.0466 53.7592 91.744 52.3926C92.3514 52.5046 92.9853 52.5494 93.5663 52.7286C95.8375 53.3559 97.026 54.7673 96.9996 56.7835C96.9996 58.0157 96.577 59.1582 95.6527 60.1439C94.6227 61.2193 93.8832 62.3842 93.7247 63.818C93.6719 64.4005 93.3022 64.9605 93.0117 65.5206C92.6155 66.2823 92.1402 66.9992 91.744 67.7833C90.3971 70.5388 90.3707 70.5388 91.8761 73.2943C93.6983 76.6323 93.6719 79.9928 92.1137 83.398C90.9781 85.8847 89.2879 88.1026 87.0959 90.0068C86.1451 90.8357 85.6169 91.6646 85.749 92.8071C85.8546 93.7256 85.5641 94.6217 85.1151 95.4506C84.5077 96.6156 83.7946 97.7581 83.108 98.9007C82.659 99.64 81.9988 100.312 81.7347 101.096C81.0216 103.18 80.467 105.308 79.8332 107.414C79.7539 107.459 79.6219 107.503 79.6219 107.526C79.6747 107.683 79.7539 107.66 79.8596 107.459C80.7575 107.459 81.629 107.436 82.527 107.436C83.4513 107.436 84.27 107.705 85.0095 108.175C85.5377 108.534 85.7754 109.004 85.6433 109.587C85.5113 110.192 85.0623 110.505 84.3757 110.595C83.7682 110.662 83.1344 110.64 82.527 110.752C79.9124 111.2 79.2786 111.827 79.2786 114.135C79.2786 115.949 78.6975 117.562 77.3242 118.951C77.1658 119.108 77.0865 119.332 76.9545 119.601C77.0865 119.601 77.2186 119.646 77.3506 119.69C75.6868 120.026 73.9174 120.049 72.6233 121.303V121.191ZM12.6465 116.868C14.2311 115.77 15.8157 114.672 17.638 113.843C18.4039 113.507 18.8264 113.059 18.8529 112.253C18.8529 110.864 19.6187 109.632 20.279 108.399C20.5431 107.907 20.3846 107.526 19.8036 107.279C19.7244 107.234 19.6451 107.212 19.5659 107.167C17.6908 106.204 17.5588 106.159 16.3175 107.593C14.7329 109.43 12.8314 111.021 11.1148 112.746C10.1376 113.731 9.31889 114.784 8.7907 116.016C8.13045 117.562 7.23252 119.041 6.6515 121.102C8.97557 119.466 10.7978 118.167 12.6729 116.868H12.6465ZM13.8086 103.292C13.5973 103.135 13.2804 103.18 13.0955 103.359C12.805 103.628 12.5409 103.941 12.224 104.21C11.0884 105.241 9.74146 105.98 8.07764 106.025C6.70433 106.07 6.07049 106.652 5.62152 107.705C3.6936 112.275 3.37669 116.912 4.61794 121.796C5.27819 120.026 5.85921 118.369 6.51945 116.733C6.94202 115.658 7.4438 114.605 7.972 113.574C8.76429 112.029 9.8735 110.685 11.4581 109.632C13.1219 108.511 14.0463 106.988 14.8121 105.353C15.2611 104.389 14.7329 103.896 13.8086 103.269V103.292ZM21.3618 89.1107C17.7965 89.1107 15.2083 91.3061 15.2347 94.5097C15.2611 98.2734 18.7208 100.402 21.7315 100.2C25.3761 100.312 27.9114 97.7581 27.885 94.8458C27.885 91.6422 24.9799 89.1331 21.3618 89.1331V89.1107Z" fill="#050404"/>
<path d="M4.61806 121.819C5.27831 120.049 5.85933 118.391 6.51958 116.756C6.94213 115.68 7.44392 114.627 7.97211 113.597C8.76441 112.051 9.87362 110.707 11.4582 109.654C13.122 108.534 14.0464 107.011 14.8123 105.375C15.2612 104.412 14.733 103.919 13.8087 103.292C13.5974 103.135 13.2805 103.18 13.0956 103.359C12.8051 103.628 12.541 103.941 12.2241 104.21C11.0885 105.241 9.74158 105.98 8.07776 106.025C6.70444 106.07 6.07061 106.652 5.62164 107.705C3.69372 112.275 3.3768 116.913 4.61806 121.796V121.819Z" fill="#DC5B25"/>
<path d="M6.62514 121.079C8.94921 119.444 10.7715 118.145 12.6466 116.845C14.2312 115.748 15.8158 114.65 17.6381 113.821C18.4039 113.485 18.8265 113.037 18.8529 112.23C18.8529 110.841 19.6188 109.609 20.279 108.377C20.5431 107.884 20.3847 107.503 19.8037 107.257C19.7244 107.212 19.6452 107.19 19.566 107.145C17.6909 106.182 17.5588 106.137 16.3176 107.571C14.733 109.408 12.8315 110.998 11.1148 112.723C10.1377 113.709 9.31895 114.762 8.79075 115.994C8.1305 117.54 7.23258 119.018 6.65156 121.079H6.62514Z" fill="#DC5B25"/>
<path d="M21.7052 100.2C25.3497 100.312 27.8851 97.7579 27.8587 94.8455C27.8587 91.6419 24.9536 89.1328 21.3355 89.1328C17.7701 89.1328 15.182 91.3283 15.2084 94.5319C15.2348 98.2955 18.6945 100.424 21.7052 100.222V100.2ZM20.9129 90.2978C24.8744 90.2081 27.5682 93.815 25.7987 96.8394C24.9008 98.3403 23.3426 99.0348 21.4675 99.0572C19.6716 99.102 18.1927 98.4523 17.3212 97.0186C17.1099 96.6825 16.9778 96.3241 16.7401 95.9881C15.2084 93.8598 16.4232 90.5442 20.9129 90.2978Z" fill="#DBDADB"/>
<path d="M20.9129 90.2978C16.4232 90.5442 15.2083 93.8598 16.7401 95.9881C16.9778 96.3017 17.1098 96.6826 17.3211 97.0186C18.1662 98.4748 19.6716 99.1021 21.4675 99.0573C23.3426 99.0125 24.9008 98.3404 25.7987 96.8394C27.5946 93.815 24.9008 90.2306 20.9129 90.2978Z" fill="#050404"/>
</svg>
