<svg width="61" height="119" viewBox="0 0 61 119" fill="none" xmlns="http://www.w3.org/2000/svg">
<path d="M5.54003 78.7501C5.51003 78.6501 5.51003 78.5401 5.46003 78.4601C4.89003 77.6401 4.84003 76.7801 5.29003 75.9101C6.04003 74.4601 5.67003 73.1201 4.99003 71.7701C4.30003 70.3901 3.70003 68.9601 3.31003 67.4501C2.99003 66.2101 2.98003 64.9501 3.13003 63.7301C3.31003 62.2501 3.59003 60.7701 4.09003 59.3501C5.00003 56.7201 4.82003 54.1401 3.61003 51.6401C3.09003 50.5601 2.67003 49.4601 2.39003 48.2701C1.86003 46.0201 2.39003 43.9901 3.45003 42.0701C4.27003 40.5901 5.30003 39.2301 6.45003 37.9601C7.39003 36.9301 8.31003 35.8701 9.12003 34.7301C10.65 32.5801 11.23 30.1401 11.48 27.5701C11.77 24.5901 12.11 21.6101 13.1 18.7601C14.11 15.8401 15.85 13.4501 18.39 11.6801C19.38 10.9901 20.45 10.5301 21.73 10.5201C23.4 10.5101 24.83 11.3901 25.56 13.1101C26.36 15.0101 26.07 16.8101 25.12 18.5601C24.93 18.9101 24.72 19.2601 24.45 19.5601C23.36 20.7601 22.94 22.2501 22.63 23.7801C22.47 24.5601 22.48 25.3701 22.77 26.1501C22.98 26.7101 23.13 27.3001 23.36 27.8501C23.79 28.9001 23.79 30.0001 23.74 31.1001C23.7 31.9801 23.33 32.7401 22.82 33.4401C22.62 33.7201 22.37 33.9801 22.14 34.2401C21.29 35.2401 21.28 35.2901 21.93 36.4301C22.81 37.9701 23.01 39.6401 22.72 41.3601C22.5 42.6901 22.16 44.0001 21.57 45.2301C21.41 45.5501 21.27 45.8701 21.48 46.2201C20.62 46.8501 20 47.6801 19.46 48.6001C18.68 49.9501 18.13 51.3901 17.62 52.8501C17.16 54.1701 17.11 55.4701 17.58 56.8101C17.96 57.9001 18.15 59.0401 18.16 60.2001C18.16 60.8001 18.16 61.4101 18.31 61.9901C18.65 63.3601 18.42 64.6601 17.9 65.9301C17.77 66.2501 17.63 66.5801 17.5 66.9001C16.67 68.9701 16.43 71.0401 17.37 73.1601C17.8 74.1401 17.9 75.1801 17.77 76.2501C17.74 76.5001 17.72 76.7501 17.72 77.0001C17.72 77.0801 17.79 77.1901 17.86 77.2201C17.94 77.2501 18.06 77.2401 18.14 77.2101C18.27 77.1401 18.43 77.0701 18.5 76.9501C19.15 75.8901 19.47 74.7601 19.13 73.5201C19.02 73.1401 18.86 72.7701 18.71 72.4001C18.15 71.0201 18.24 69.6701 18.89 68.3401C19.09 67.9401 19.28 67.5301 19.46 67.1201C19.93 66.0801 20.03 65.0301 19.62 63.9201C19.34 63.1801 19.11 62.3901 19 61.6101C18.41 57.3801 18.93 53.3401 21.16 49.6101C21.88 48.4101 22.61 47.2201 23.32 46.0101C23.6 45.5401 23.83 45.0401 24.09 44.5601C24.83 43.2401 25.18 41.8001 25.26 40.3101C25.32 39.1601 25.24 38.0001 25.29 36.8501C25.45 32.7201 26.54 28.8601 28.86 25.4001C30.15 23.4701 31.75 21.8301 33.58 20.4001C35 19.2901 36.41 18.1801 37.81 17.0501C38.83 16.2301 39.58 15.1501 40.35 14.1101C41.66 12.3301 42.63 10.3401 43.78 8.4701C44.94 6.5901 46.15 4.7701 47.76 3.2301C48.63 2.3901 49.58 1.6701 50.59 1.0101C51.73 0.270097 52.95 -0.0399031 54.29 0.0400969C55.88 0.130097 57.26 1.3801 57.4 2.9601C57.52 4.3201 57.42 5.6301 56.73 6.8901C55.85 8.5001 54.82 9.9301 53.31 11.0101C52.87 11.3301 52.48 11.7301 52.09 12.1201C51.23 12.9801 51.15 13.5301 51.65 14.6801C51.89 15.2301 52.13 15.7801 52.35 16.3401C52.86 17.6301 52.52 18.8301 51.78 19.8901C50.99 21.0101 49.94 21.8401 48.6 22.3001C47.41 22.7001 46.2 22.9801 44.97 23.1901C44.37 23.2901 43.79 23.4401 43.25 23.6801C42.17 24.1801 41.53 25.0301 41.46 26.2501C41.4 27.2101 41.48 28.1501 41.86 29.0501C42.28 30.0301 42.42 31.0601 42.43 32.1301C42.46 34.8701 41.18 36.9101 39.1 38.5301C38.71 38.8401 38.25 39.0501 37.83 39.3301C37.54 39.5201 37.22 39.7001 36.99 39.9401C36.3 40.6501 36.24 41.2801 36.81 42.0901C37.21 42.6601 37.64 43.2201 38.11 43.7401C38.75 44.4301 39.16 45.1901 39.17 46.1501C39.17 46.3301 39.31 46.5101 39.39 46.6901C39.49 47.7601 39.1 48.7501 38.9 49.7801C38.65 51.0701 38.02 52.0901 36.98 52.8801C36.34 53.3601 35.7 53.8801 35.32 54.5901C34.27 56.5301 33.33 58.4901 33.86 60.8401C34.18 62.2501 33.39 63.4901 32.08 64.1001C31.85 64.2101 31.62 64.3001 31.41 64.4201C30.37 65.0401 29.41 65.7501 28.76 66.8001C28.1 67.8801 27.98 70.8701 28.53 72.0501C28.64 72.2801 28.79 72.4701 29.12 72.4301C29.14 72.3001 29.18 72.1501 29.18 72.0101C29.24 69.0901 30.58 67.1501 33.31 66.0601C33.98 65.8001 34.57 65.4501 35.01 64.8801C36.15 63.3901 36.84 61.7901 36.24 59.8601C36.03 59.1701 36.11 58.4901 36.29 57.7901C36.68 56.3501 37.38 55.1201 38.57 54.1801C39.5 53.4501 40.18 52.5301 40.49 51.3801C40.95 49.6901 41.35 47.9901 41.07 46.2101C41.8 45.5301 42.53 44.8401 43.27 44.1701C43.83 43.6601 44.26 43.0401 44.67 42.4101C45.19 41.6001 45.45 40.7201 45.47 39.7201C45.52 37.6801 45.24 35.7401 44.36 33.8801C44.04 33.2001 43.83 32.4801 43.54 31.7901C43.3 31.2101 43.3 30.6201 43.33 30.0201C43.39 28.9401 44.11 28.2301 45.18 28.3101C46.12 28.3801 47.06 28.5401 47.98 28.7501C50.61 29.3701 53.21 30.0601 55.77 30.9201C56.97 31.3201 58.06 31.9201 59.09 32.6401C59.64 33.0201 60.06 33.5101 60.29 34.1401C60.69 35.2501 60.32 36.2501 59.28 36.8001C58.66 37.1301 58.03 37.4101 57.4 37.7201C56.75 38.0401 56.48 38.5501 56.49 39.2901C56.5 40.4001 56.81 41.4601 56.98 42.5501C57.21 44.0401 57.29 45.5401 56.75 46.9901C56.14 48.6601 54.87 49.8001 53.51 50.8401C52.54 51.5801 51.39 51.9501 50.25 52.3301C49.78 52.4901 49.29 52.6201 48.81 52.7501C47.16 53.2001 46.4 54.4101 45.99 55.9501C45.51 57.7901 46 59.5201 46.65 61.2001C47.06 62.2701 47.6 63.3001 48.29 64.2301C48.5 64.5101 48.68 64.8101 48.86 65.1101C50.64 68.0001 50.23 71.8101 47.81 74.4101C47.09 75.1801 46.28 75.8401 45.39 76.4101C44.72 76.8401 44.05 77.2901 43.38 77.7201C42.69 78.1601 42.35 78.7401 42.37 79.5901C42.42 81.5401 42.38 83.5001 42.42 85.4501C42.44 86.3601 42.37 87.2501 42.06 88.1101C42.03 88.1701 41.99 88.2301 41.96 88.2801C42.02 88.2501 42.08 88.2101 42.14 88.1801C42.81 88.1001 43.31 87.6301 43.93 87.4301C44.29 87.3101 44.5 87.4801 44.51 87.8601C44.51 88.3401 44.34 88.7401 44 89.0601C43.43 89.6101 42.91 90.2301 42.21 90.6501C41.91 90.8301 41.65 91.0601 41.4 91.2401C41.44 91.6101 41.69 91.6801 41.92 91.7501C42.42 91.8901 42.82 92.2101 43.19 92.5201C43.87 93.0901 44.06 93.8801 43.82 94.7001C43.61 95.4501 42.96 95.7901 42.24 95.9101C41.7 95.9901 41.14 95.9401 40.59 95.9501C40.53 95.8101 40.49 95.7901 40.46 95.9001C40.46 95.9101 40.54 95.9401 40.58 95.9601C40.5 96.4401 40.72 96.8401 40.92 97.2501C41.15 97.7101 41.19 98.2001 41.2 98.7101C41.21 99.4601 40.83 99.9201 40.18 100.22C39.79 100.4 39.43 100.43 39.03 100.25C38.34 99.9401 37.68 99.6001 37.27 98.9101C37.12 98.6601 36.97 98.3901 36.65 98.2601C36.31 98.2701 36.39 98.6101 36.28 98.8001C36.11 99.1001 35.99 99.4401 35.78 99.7201C35.2 100.48 34.56 100.51 33.88 99.8601C33.62 99.6101 33.48 99.3001 33.36 98.9601C32.46 96.3901 33.7 93.4001 35.73 92.2701C36.29 91.9601 36.76 91.6501 36.76 90.9401C36.76 90.8401 36.83 90.7501 36.85 90.6501C36.9 90.2401 37.55 89.8201 37.05 89.4701C36.69 89.2101 36.4 89.8001 36.09 90.0201C35.4 90.5101 34.73 91.0401 34.02 91.5001C33.13 92.0801 32.17 92.4901 31.11 92.6501C30.82 92.7001 30.52 92.7701 30.25 92.8701C29.93 92.9901 29.83 93.2601 29.81 93.5901C29.8 93.8701 30 94.0901 30.26 94.0301C30.65 93.9301 31.03 93.7901 31.41 93.6901C31.6 93.6401 31.8 93.6101 32 93.6101C32.31 93.6001 32.54 93.9901 32.37 94.2601C32.22 94.5101 32.04 94.7601 31.83 94.9701C31.51 95.2801 31.15 95.5601 30.82 95.8401C30.79 96.3001 31.19 96.2501 31.42 96.3901C32.23 96.8801 32.61 97.5601 32.5 98.5201C32.44 99.0101 32.25 99.3901 31.79 99.5801C31.52 99.6901 31.22 99.7601 30.94 99.8501C30.39 100.02 30.31 100.12 30.49 100.72C30.6 101.11 30.67 101.49 30.7 101.9C30.8 103.12 29.73 103.82 28.58 103.29C28.16 103.1 27.81 102.83 27.49 102.5C27.35 102.36 27.2 102.22 27.03 102.12C26.82 101.99 26.62 102.09 26.54 102.29C26.37 102.7 26.27 103.16 26.07 103.56C25.55 104.61 24.31 104.69 23.64 103.73C23.35 103.31 23.21 102.84 23.17 102.33C23.05 100.82 23.43 99.4501 24.22 98.1801C24.54 97.6701 24.91 97.2001 25.28 96.7301C26.15 95.6401 26.37 94.3901 26.14 93.0501C26.1 92.8301 25.89 92.7201 25.68 92.8201C24.67 93.3201 23.88 93.9801 23.45 95.1101C22.36 97.9301 20.37 99.9901 17.71 101.39C15.92 102.33 16.27 101.88 15.46 103.77C14.36 106.35 13.21 108.9 12.1 111.47C11.48 112.9 11.02 114.37 10.81 115.92C10.74 116.41 10.64 116.91 10.45 117.37C10.08 118.26 9.15003 118.5 8.52003 117.8C7.10003 116.2 5.44003 114.77 4.42003 112.85C3.55003 111.21 2.96003 109.45 2.43003 107.68C1.95003 106.08 1.80003 104.46 1.78003 102.79C1.75003 100.09 1.46003 97.4201 0.62003 94.8201C-0.10997 92.5501 -0.23997 90.2201 0.27003 87.8601C0.86003 85.1501 2.31003 83.0001 4.47003 81.3001C4.67003 81.1501 4.90003 81.0401 4.94003 80.7601C5.49003 81.1201 6.03003 80.7901 6.52003 80.6501C8.78003 80.0201 10.46 78.7401 10.92 76.2701C10.95 76.1201 11.02 75.9801 11.04 75.8401C11.16 74.7301 11.66 73.8701 12.63 73.2701C13.2 72.9101 13.6 72.3601 13.57 71.6501C13.53 70.3701 14.06 69.3301 14.8 68.3601C14.94 68.1701 15.05 67.9301 15.12 67.7001C15.17 67.5301 15.03 67.4501 14.86 67.4201C14.65 67.3901 14.47 67.4601 14.31 67.5901C13.15 68.5201 12.16 69.5501 12.09 71.1501C12.07 71.6301 11.95 72.0501 11.54 72.3101C10.34 73.0801 9.71003 74.2501 9.19003 75.5201C8.98003 76.0201 8.77003 76.5601 8.42003 76.9701C7.66003 77.8701 6.89003 78.8401 5.51003 78.7801L5.54003 78.7501ZM5.58003 93.7001C5.85003 94.4101 6.22003 95.0301 6.97003 95.3301C7.23003 95.4701 7.49003 95.6201 7.76003 95.7401C9.42003 96.4301 11.06 95.7501 11.73 93.9701C11.88 93.5601 11.94 93.1001 12.04 92.6701C12.25 91.8201 11.98 91.1401 11.19 90.4801C11.31 91.3201 11.41 91.9901 11.51 92.6701C11.27 94.0101 10.53 94.8701 9.19003 95.2101C8.53003 95.3801 7.93003 95.1501 7.32003 95.0001C6.76003 94.5601 6.23003 94.0901 5.87003 93.4601C5.77003 92.5501 5.72003 91.6501 6.11003 90.7801C7.26003 89.3401 8.73003 89.2001 10.58 89.8901C8.79003 88.5101 7.40003 88.6501 6.00003 90.1801C5.07003 91.2601 5.12003 92.4601 5.58003 93.7101V93.7001ZM7.38003 112.91C7.61003 112.67 7.57003 112.47 7.53003 112.29C7.07003 110.15 7.40003 108.02 7.59003 105.89C7.65003 105.2 7.94003 104.54 8.09003 103.86C8.32003 102.81 7.86003 101.97 6.91003 101.6C6.63003 101.49 6.43003 101.54 6.32003 101.83C6.02003 102.63 5.73003 103.44 4.83003 103.77C4.62003 103.85 4.55003 104.04 4.55003 104.25C4.55003 104.65 4.53003 105.06 4.61003 105.44C5.02003 107.45 5.54003 109.43 6.35003 111.31C6.60003 111.89 6.89003 112.45 7.38003 112.9V112.91ZM8.86003 111.97C9.61003 110.22 10.31 108.56 11.02 106.92C11.19 106.53 11.26 106.19 11.04 105.78C10.63 105.05 10.61 104.25 10.67 103.44C10.69 103.25 10.69 103.05 10.66 102.85C10.65 102.78 10.53 102.69 10.45 102.67C10.37 102.66 10.24 102.7 10.19 102.77C9.89003 103.13 9.81003 103.59 9.73003 104.02C9.34003 106.29 8.99003 108.56 8.64003 110.83C8.59003 111.16 8.51003 111.52 8.86003 111.96V111.97ZM39.25 85.9601C39.01 86.1501 38.89 86.3501 38.9 86.6001C38.9 86.6801 38.98 86.8001 39.05 86.8101C39.12 86.8301 39.26 86.7601 39.29 86.7001C39.35 86.5301 39.38 86.3401 39.39 86.1501C39.39 86.0901 39.31 86.0201 39.25 85.9501V85.9601ZM37.94 88.2201C37.87 88.2701 37.75 88.3001 37.73 88.3601C37.71 88.4201 37.75 88.5801 37.8 88.5901C37.95 88.6501 38.07 88.5601 38.08 88.4001C38.08 88.3401 37.99 88.2801 37.93 88.2101L37.94 88.2201ZM38.72 87.4201C38.67 87.3101 38.58 87.2601 38.49 87.3301C38.42 87.3801 38.35 87.4801 38.36 87.5501C38.38 87.7201 38.52 87.7601 38.65 87.6701C38.71 87.6301 38.71 87.5101 38.73 87.4301L38.72 87.4201Z" fill="#050404"/>
<path d="M41.0801 46.1901C41.3701 47.9701 40.9601 49.6701 40.5001 51.3601C40.1901 52.5001 39.5101 53.4201 38.5801 54.1601C37.4001 55.1001 36.6901 56.3201 36.3001 57.7701C36.1101 58.4601 36.0301 59.1501 36.2501 59.8401C36.8501 61.7601 36.1601 63.3701 35.0201 64.8601C34.5801 65.4301 33.9901 65.7801 33.3201 66.0401C30.5901 67.1301 29.2501 69.0701 29.1901 71.9901C29.1901 72.1301 29.1501 72.2701 29.1301 72.4101C28.8101 72.4601 28.6501 72.2601 28.5401 72.0301C27.9901 70.8501 28.1001 67.8501 28.7701 66.7801C29.4201 65.7301 30.3801 65.0201 31.4201 64.4001C31.6301 64.2701 31.8701 64.1801 32.0901 64.0801C33.4001 63.4701 34.1801 62.2201 33.8701 60.8201C33.3401 58.4601 34.2801 56.5101 35.3301 54.5701C35.7101 53.8601 36.3501 53.3401 36.9901 52.8601C38.0401 52.0701 38.6601 51.0501 38.9101 49.7601C39.1101 48.7301 39.5001 47.7401 39.4001 46.6701C39.9301 46.4301 40.4001 45.9701 41.0701 46.2301L41.0801 46.1901Z" fill="#EEEDED"/>
<path d="M24.1301 44.5298C23.8701 45.0198 23.6401 45.5098 23.3601 45.9798C22.6501 47.1898 21.9201 48.3798 21.2001 49.5798C18.9701 53.3098 18.4501 57.3498 19.0401 61.5798C19.1501 62.3698 19.3801 63.1498 19.6601 63.8898C20.0801 64.9998 19.9801 66.0398 19.5001 67.0898C19.3101 67.4998 19.1301 67.9098 18.9301 68.3098C18.2701 69.6398 18.1901 70.9898 18.7501 72.3698C18.9001 72.7398 19.0601 73.1098 19.1701 73.4898C19.5101 74.7298 19.1901 75.8598 18.5401 76.9198C18.4701 77.0398 18.3101 77.1198 18.1801 77.1798C18.1001 77.2198 17.9801 77.2298 17.9001 77.1898C17.8301 77.1598 17.7601 77.0498 17.7601 76.9698C17.7601 76.7198 17.7801 76.4698 17.8101 76.2198C17.9501 75.1598 17.8501 74.1098 17.4101 73.1298C16.4701 71.0198 16.7101 68.9398 17.5401 66.8698C17.6701 66.5498 17.8001 66.2198 17.9401 65.8998C18.4601 64.6298 18.6901 63.3298 18.3501 61.9598C18.2101 61.3798 18.2101 60.7798 18.2001 60.1698C18.1801 59.0198 18.0001 57.8698 17.6201 56.7798C17.1501 55.4398 17.2001 54.1398 17.6601 52.8198C18.1701 51.3598 18.7101 49.9198 19.5001 48.5698C20.0401 47.6498 20.6501 46.8198 21.5201 46.1898C22.0601 46.0198 22.4401 45.6098 22.8901 45.3098C23.3001 45.0398 23.6301 44.6398 24.1301 44.5098V44.5298Z" fill="#EEEDED"/>
<path d="M5.53997 78.7502C6.91997 78.8002 7.67997 77.8402 8.44997 76.9402C8.78997 76.5302 9.00997 76.0002 9.21997 75.4902C9.73997 74.2202 10.36 73.0502 11.57 72.2802C11.99 72.0202 12.1 71.6002 12.12 71.1202C12.19 69.5202 13.19 68.4902 14.34 67.5602C14.5 67.4302 14.68 67.3602 14.89 67.3902C15.05 67.4102 15.2 67.5002 15.15 67.6702C15.08 67.9002 14.98 68.1402 14.83 68.3302C14.09 69.3102 13.56 70.3402 13.6 71.6202C13.62 72.3202 13.23 72.8802 12.66 73.2402C11.69 73.8402 11.19 74.6902 11.07 75.8102C11.05 75.9602 10.98 76.1002 10.95 76.2402C10.48 78.7102 8.80997 79.9802 6.54997 80.6202C6.05997 80.7602 5.51997 81.0902 4.96997 80.7302C5.48997 80.1702 5.47997 79.4502 5.53997 78.7602V78.7502Z" fill="#EEEDED"/>
<path d="M7.38005 112.91C6.90005 112.47 6.60005 111.9 6.35005 111.32C5.54005 109.43 5.01005 107.46 4.61005 105.45C4.53005 105.06 4.56005 104.65 4.55005 104.26C4.55005 104.05 4.62005 103.86 4.83005 103.78C5.74005 103.45 6.02005 102.63 6.32005 101.84C6.43005 101.55 6.63005 101.5 6.91005 101.61C7.86005 101.97 8.32005 102.82 8.09005 103.87C7.94005 104.55 7.65005 105.21 7.59005 105.9C7.39005 108.03 7.07005 110.16 7.53005 112.3C7.57005 112.48 7.61005 112.68 7.38005 112.92V112.91Z" fill="#DC5B25"/>
<path d="M8.85993 111.97C8.50993 111.53 8.58993 111.17 8.63993 110.84C8.98993 108.57 9.33993 106.29 9.72993 104.03C9.79993 103.6 9.88993 103.14 10.1899 102.78C10.2399 102.72 10.3699 102.67 10.4499 102.68C10.5299 102.69 10.6499 102.78 10.6599 102.86C10.6899 103.05 10.6899 103.25 10.6699 103.45C10.5999 104.26 10.6299 105.06 11.0399 105.79C11.2699 106.19 11.1899 106.54 11.0199 106.93C10.2999 108.58 9.59993 110.23 8.85993 111.98V111.97Z" fill="#DC5B25"/>
<path d="M7.30996 94.9902C7.91996 95.1402 8.51996 95.3701 9.17996 95.2001C10.52 94.8601 11.26 93.9902 11.5 92.6602C11.68 92.6602 11.85 92.6602 12.03 92.6602C11.93 93.1002 11.88 93.5502 11.72 93.9602C11.05 95.7402 9.41996 96.4302 7.74996 95.7302C7.47996 95.6202 7.21996 95.4602 6.95996 95.3202C6.97996 95.1102 7.13996 95.0402 7.29996 94.9702L7.30996 94.9902Z" fill="#DBDADB"/>
<path d="M5.98999 90.1699C7.38999 88.6499 8.78999 88.4999 10.57 89.8799C8.71999 89.1899 7.23999 89.3199 6.09999 90.7699C6.05999 90.5699 6.02999 90.3699 5.98999 90.1699Z" fill="#DBDADB"/>
<path d="M5.98994 90.1699C6.02994 90.3699 6.05994 90.5699 6.09994 90.7699C5.70994 91.6299 5.74994 92.5399 5.85994 93.4499C5.76994 93.5299 5.66994 93.6199 5.57994 93.6999C5.11994 92.4499 5.06994 91.2499 5.99994 90.1699H5.98994Z" fill="#8C8888"/>
<path d="M12.0299 92.67C11.8499 92.67 11.6799 92.67 11.4999 92.67C11.3999 92 11.2999 91.32 11.1799 90.48C11.9699 91.15 12.2399 91.82 12.0299 92.67Z" fill="#8C8888"/>
<path d="M7.31008 94.99C7.15008 95.06 6.99008 95.12 6.97008 95.34C6.22008 95.04 5.85008 94.42 5.58008 93.71C5.67008 93.63 5.77008 93.54 5.86008 93.46C6.22008 94.09 6.75008 94.56 7.31008 95V94.99Z" fill="#8C8888"/>
<path d="M39.25 85.96C39.3 86.03 39.39 86.1 39.39 86.16C39.38 86.35 39.35 86.53 39.29 86.71C39.27 86.77 39.12 86.83 39.05 86.82C38.98 86.8 38.91 86.68 38.9 86.61C38.89 86.36 39.01 86.16 39.25 85.97V85.96Z" fill="#4D4D4D"/>
<path d="M37.94 88.2202C37.99 88.2802 38.09 88.3502 38.09 88.4102C38.09 88.5702 37.96 88.6602 37.81 88.6002C37.76 88.5802 37.71 88.4302 37.74 88.3702C37.76 88.3102 37.88 88.2702 37.95 88.2302L37.94 88.2202Z" fill="#4D4D4D"/>
<path d="M38.7201 87.4199C38.6901 87.4999 38.7001 87.6199 38.6401 87.6599C38.5101 87.7599 38.3701 87.7099 38.3501 87.5399C38.3501 87.4699 38.4201 87.3699 38.4801 87.3199C38.5801 87.2499 38.6701 87.2999 38.7201 87.4099V87.4199Z" fill="#4D4D4D"/>
<path d="M40.62 95.9501C40.62 95.9501 40.5 95.9001 40.5 95.8901C40.52 95.7901 40.57 95.8001 40.63 95.9401L40.62 95.9501Z" fill="#4D4D4D"/>
<path d="M42.16 88.1701C42.1 88.2001 42.04 88.2401 41.98 88.2701C42.01 88.2101 42.05 88.1501 42.08 88.1001L42.15 88.1701H42.16Z" fill="#4D4D4D"/>
</svg>
