<svg width="27" height="25" viewBox="0 0 27 25" fill="none" xmlns="http://www.w3.org/2000/svg">
<path d="M0 1.125C0 0.515625 0.46875 0 1.125 0H3.23438C4.26562 0 5.20312 0.609375 5.625 1.5H24.8906C26.1094 1.5 27 2.67188 26.6719 3.89062L24.75 11.0156C24.375 12.5156 23.0156 13.5 21.5156 13.5H7.96875L8.25 14.8594C8.34375 15.375 8.8125 15.75 9.32812 15.75H22.875C23.4844 15.75 24 16.2656 24 16.875C24 17.5312 23.4844 18 22.875 18H9.32812C7.73438 18 6.32812 16.875 6.04688 15.2812L3.60938 2.57812C3.5625 2.39062 3.42188 2.25 3.23438 2.25H1.125C0.46875 2.25 0 1.78125 0 1.125ZM6 21.75C6 20.9531 6.42188 20.25 7.125 19.8281C7.78125 19.4062 8.67188 19.4062 9.375 19.8281C10.0312 20.25 10.5 20.9531 10.5 21.75C10.5 22.5938 10.0312 23.2969 9.375 23.7188C8.67188 24.1406 7.78125 24.1406 7.125 23.7188C6.42188 23.2969 6 22.5938 6 21.75ZM21.75 19.5C22.5469 19.5 23.25 19.9688 23.6719 20.625C24.0938 21.3281 24.0938 22.2188 23.6719 22.875C23.25 23.5781 22.5469 24 21.75 24C20.9062 24 20.2031 23.5781 19.7812 22.875C19.3594 22.2188 19.3594 21.3281 19.7812 20.625C20.2031 19.9688 20.9062 19.5 21.75 19.5Z" fill="white"/>
</svg>
