<svg width="27" height="31" viewBox="0 0 27 31" fill="none" xmlns="http://www.w3.org/2000/svg">
<path d="M13.1765 15.75C10.4812 15.75 8.02026 14.3438 6.67261 12C5.32495 9.71484 5.32495 6.84375 6.67261 4.5C8.02026 2.21484 10.4812 0.75 13.1765 0.75C15.8132 0.75 18.2742 2.21484 19.6218 4.5C20.9695 6.84375 20.9695 9.71484 19.6218 12C18.2742 14.3438 15.8132 15.75 13.1765 15.75ZM10.4812 18.5625H15.8132C21.614 18.5625 26.3015 23.25 26.3015 29.0508C26.3015 29.9883 25.4812 30.75 24.5437 30.75H1.75073C0.813232 30.75 0.0515137 29.9883 0.0515137 29.0508C0.0515137 23.25 4.68042 18.5625 10.4812 18.5625Z" fill="black"/>
</svg>
